<svg xmlns="http://www.w3.org/2000/svg" xmlns:xlink="http://www.w3.org/1999/xlink" preserveAspectRatio="xMidYMid" width="104" height="75" viewBox="0 0 104 75">
  <defs>
    <style>
      .cls-1 {
        fill: #dedede;
      }

      .cls-2 {
        fill: #8ed5e0;
      }

      .cls-2, .cls-3, .cls-4, .cls-5 {
        fill-rule: evenodd;
      }

      .cls-3 {
        fill: #55c1c5;
      }

      .cls-4 {
        fill: #48afb3;
      }

      .cls-5 {
        fill: #fff;
      }
    </style>
  </defs>
  <g>
    <ellipse cx="52.5" cy="73" rx="51.5" ry="2" class="cls-1"/>
    <path d="M90.423,49.007 L54.087,49.007 C51.829,49.007 49.999,46.320 49.999,43.006 L49.999,5.999 C49.999,2.685 51.829,-0.002 54.087,-0.002 L90.453,-0.002 C90.990,-0.002 91.499,0.347 91.844,0.951 L103.258,20.912 C104.229,22.611 104.252,25.080 103.312,26.817 L91.845,47.999 C91.501,48.636 90.977,49.007 90.423,49.007 Z" class="cls-2"/>
    <path d="M66.423,49.007 L30.087,49.007 C27.829,49.007 25.999,46.320 25.999,43.006 L25.999,5.999 C25.999,2.685 27.829,-0.002 30.087,-0.002 L66.453,-0.002 C66.990,-0.002 67.499,0.347 67.844,0.951 L79.258,20.912 C80.229,22.611 80.252,25.080 79.312,26.817 L67.845,47.999 C67.501,48.636 66.977,49.007 66.423,49.007 Z" class="cls-3"/>
    <path d="M40.423,49.007 L4.087,49.007 C1.829,49.007 -0.001,46.320 -0.001,43.006 L-0.001,5.999 C-0.001,2.685 1.829,-0.002 4.087,-0.002 L40.453,-0.002 C40.990,-0.002 41.499,0.347 41.844,0.951 L53.258,20.912 C54.229,22.611 54.252,25.080 53.312,26.817 L41.845,47.999 C41.501,48.636 40.977,49.007 40.423,49.007 Z" class="cls-4"/>
    <path d="M24.299,33.714 C24.654,34.043 25.083,34.208 25.586,34.208 C26.089,34.208 26.518,34.043 26.873,33.714 C27.228,33.385 27.406,32.995 27.406,32.544 L27.406,17.178 C27.406,16.675 27.224,16.259 26.860,15.930 C26.496,15.601 26.037,15.436 25.482,15.436 C25.135,15.436 24.797,15.531 24.468,15.722 L19.320,18.738 C19.077,18.877 18.882,19.067 18.735,19.310 C18.588,19.553 18.514,19.847 18.514,20.194 C18.514,20.749 18.692,21.139 19.047,21.364 C19.402,21.589 19.779,21.702 20.178,21.702 C20.473,21.702 20.741,21.650 20.984,21.546 C21.227,21.442 21.469,21.312 21.712,21.156 L23.766,19.908 L23.766,32.544 C23.766,32.995 23.944,33.385 24.299,33.714 Z" class="cls-5"/>
  </g>
</svg>
