<svg xmlns="http://www.w3.org/2000/svg" xmlns:xlink="http://www.w3.org/1999/xlink" preserveAspectRatio="xMidYMid" width="104" height="100" viewBox="0 0 104 100">
  <defs>
    <style>
      .cls-1 {
        fill: #dd8e8e;
      }

      .cls-2 {
        fill: #d15e5e;
      }

      .cls-10, .cls-12, .cls-14, .cls-2, .cls-3, .cls-5, .cls-8 {
        fill-rule: evenodd;
      }

      .cls-3, .cls-6 {
        fill: #fff;
      }

      .cls-4, .cls-5 {
        fill: #f0d1d1;
      }

      .cls-7 {
        fill: #c4a3cd;
      }

      .cls-8 {
        fill: #9b6fb0;
      }

      .cls-10, .cls-9 {
        fill: #e4d8e8;
      }

      .cls-11 {
        fill: #c2e2c8;
      }

      .cls-12 {
        fill: #7fb18c;
      }

      .cls-13, .cls-14 {
        fill: #e6efe7;
      }
    </style>
  </defs>
  <g>
    <g>
      <rect y="11" width="77" height="80" rx="3" ry="3" class="cls-1"/>
      <path d="M7.000,15.000 L34.000,15.000 C35.657,15.000 37.000,16.343 37.000,18.000 L37.000,20.000 L4.000,20.000 L4.000,18.000 C4.000,16.343 5.343,15.000 7.000,15.000 Z" class="cls-2"/>
      <path d="M4.000,20.000 L37.000,20.000 L37.000,46.000 C37.000,47.657 35.657,49.000 34.000,49.000 L7.000,49.000 C5.343,49.000 4.000,47.657 4.000,46.000 L4.000,20.000 Z" class="cls-3"/>
      <path d="M7.000,52.000 L34.000,52.000 C35.657,52.000 37.000,53.343 37.000,55.000 L37.000,57.000 L4.000,57.000 L4.000,55.000 C4.000,53.343 5.343,52.000 7.000,52.000 Z" class="cls-2"/>
      <path d="M4.000,57.000 L37.000,57.000 L37.000,84.000 C37.000,85.657 35.657,87.000 34.000,87.000 L7.000,87.000 C5.343,87.000 4.000,85.657 4.000,84.000 L4.000,57.000 Z" class="cls-3"/>
      <rect x="8" y="61" width="25" height="22" rx="2" ry="2" class="cls-4"/>
      <rect x="21" y="23" width="13" height="3" rx="1" ry="1" class="cls-4"/>
      <path d="M7.500,24.000 L18.500,24.000 C18.776,24.000 19.000,24.224 19.000,24.500 C19.000,24.776 18.776,25.000 18.500,25.000 L7.500,25.000 C7.224,25.000 7.000,24.776 7.000,24.500 C7.000,24.224 7.224,24.000 7.500,24.000 Z" class="cls-5"/>
      <rect x="21" y="28" width="13" height="3" rx="1" ry="1" class="cls-4"/>
      <path d="M7.500,29.000 L18.500,29.000 C18.776,29.000 19.000,29.224 19.000,29.500 C19.000,29.776 18.776,30.000 18.500,30.000 L7.500,30.000 C7.224,30.000 7.000,29.776 7.000,29.500 C7.000,29.224 7.224,29.000 7.500,29.000 Z" class="cls-5"/>
      <rect x="21" y="33" width="13" height="3" rx="1" ry="1" class="cls-4"/>
      <path d="M7.500,34.000 L18.500,34.000 C18.776,34.000 19.000,34.224 19.000,34.500 C19.000,34.776 18.776,35.000 18.500,35.000 L7.500,35.000 C7.224,35.000 7.000,34.776 7.000,34.500 C7.000,34.224 7.224,34.000 7.500,34.000 Z" class="cls-5"/>
      <rect x="21" y="38" width="13" height="3" rx="1" ry="1" class="cls-4"/>
      <path d="M7.500,39.000 L18.500,39.000 C18.776,39.000 19.000,39.224 19.000,39.500 C19.000,39.776 18.776,40.000 18.500,40.000 L7.500,40.000 C7.224,40.000 7.000,39.776 7.000,39.500 C7.000,39.224 7.224,39.000 7.500,39.000 Z" class="cls-5"/>
      <rect x="21" y="43" width="13" height="3" rx="1" ry="1" class="cls-4"/>
      <path d="M7.500,44.000 L18.500,44.000 C18.776,44.000 19.000,44.224 19.000,44.500 C19.000,44.776 18.776,45.000 18.500,45.000 L7.500,45.000 C7.224,45.000 7.000,44.776 7.000,44.500 C7.000,44.224 7.224,44.000 7.500,44.000 Z" class="cls-5"/>
      <rect x="40" y="15" width="33" height="72" rx="3" ry="3" class="cls-6"/>
      <path d="M43.000,15.000 L70.000,15.000 C71.657,15.000 73.000,16.343 73.000,18.000 L73.000,20.000 L40.000,20.000 L40.000,18.000 C40.000,16.343 41.343,15.000 43.000,15.000 Z" class="cls-2"/>
      <rect x="44" y="23" width="25" height="18" rx="2" ry="2" class="cls-4"/>
      <rect x="44" y="45" width="25" height="39" rx="2" ry="2" class="cls-4"/>
    </g>
    <g>
      <rect x="27" width="77" height="80" rx="3" ry="3" class="cls-7"/>
      <path d="M34.000,4.000 L61.000,4.000 C62.657,4.000 64.000,5.343 64.000,7.000 L64.000,9.000 L31.000,9.000 L31.000,7.000 C31.000,5.343 32.343,4.000 34.000,4.000 Z" class="cls-8"/>
      <path d="M31.000,9.000 L64.000,9.000 L64.000,35.000 C64.000,36.657 62.657,38.000 61.000,38.000 L34.000,38.000 C32.343,38.000 31.000,36.657 31.000,35.000 L31.000,9.000 Z" class="cls-3"/>
      <path d="M34.000,41.000 L61.000,41.000 C62.657,41.000 64.000,42.343 64.000,44.000 L64.000,46.000 L31.000,46.000 L31.000,44.000 C31.000,42.343 32.343,41.000 34.000,41.000 Z" class="cls-8"/>
      <path d="M31.000,46.000 L64.000,46.000 L64.000,73.000 C64.000,74.657 62.657,76.000 61.000,76.000 L34.000,76.000 C32.343,76.000 31.000,74.657 31.000,73.000 L31.000,46.000 Z" class="cls-3"/>
      <rect x="35" y="50" width="25" height="22" rx="2" ry="2" class="cls-9"/>
      <rect x="48" y="12" width="13" height="3" rx="1" ry="1" class="cls-9"/>
      <path d="M34.500,13.000 L45.500,13.000 C45.776,13.000 46.000,13.224 46.000,13.500 C46.000,13.776 45.776,14.000 45.500,14.000 L34.500,14.000 C34.224,14.000 34.000,13.776 34.000,13.500 C34.000,13.224 34.224,13.000 34.500,13.000 Z" class="cls-10"/>
      <rect x="48" y="17" width="13" height="3" rx="1" ry="1" class="cls-9"/>
      <path d="M34.500,18.000 L45.500,18.000 C45.776,18.000 46.000,18.224 46.000,18.500 C46.000,18.776 45.776,19.000 45.500,19.000 L34.500,19.000 C34.224,19.000 34.000,18.776 34.000,18.500 C34.000,18.224 34.224,18.000 34.500,18.000 Z" class="cls-10"/>
      <rect x="48" y="22" width="13" height="3" rx="1" ry="1" class="cls-9"/>
      <path d="M34.500,23.000 L45.500,23.000 C45.776,23.000 46.000,23.224 46.000,23.500 C46.000,23.776 45.776,24.000 45.500,24.000 L34.500,24.000 C34.224,24.000 34.000,23.776 34.000,23.500 C34.000,23.224 34.224,23.000 34.500,23.000 Z" class="cls-10"/>
      <rect x="48" y="27" width="13" height="3" rx="1" ry="1" class="cls-9"/>
      <path d="M34.500,28.000 L45.500,28.000 C45.776,28.000 46.000,28.224 46.000,28.500 C46.000,28.776 45.776,29.000 45.500,29.000 L34.500,29.000 C34.224,29.000 34.000,28.776 34.000,28.500 C34.000,28.224 34.224,28.000 34.500,28.000 Z" class="cls-10"/>
      <rect x="48" y="32" width="13" height="3" rx="1" ry="1" class="cls-9"/>
      <path d="M34.500,33.000 L45.500,33.000 C45.776,33.000 46.000,33.224 46.000,33.500 C46.000,33.776 45.776,34.000 45.500,34.000 L34.500,34.000 C34.224,34.000 34.000,33.776 34.000,33.500 C34.000,33.224 34.224,33.000 34.500,33.000 Z" class="cls-10"/>
      <rect x="67" y="4" width="33" height="72" rx="3" ry="3" class="cls-6"/>
      <path d="M70.000,4.000 L97.000,4.000 C98.657,4.000 100.000,5.343 100.000,7.000 L100.000,9.000 L67.000,9.000 L67.000,7.000 C67.000,5.343 68.343,4.000 70.000,4.000 Z" class="cls-8"/>
      <rect x="71" y="12" width="25" height="18" rx="2" ry="2" class="cls-9"/>
      <rect x="71" y="34" width="25" height="39" rx="2" ry="2" class="cls-9"/>
    </g>
    <g>
      <rect x="14" y="20" width="77" height="80" rx="3" ry="3" class="cls-11"/>
      <path d="M21.000,24.000 L48.000,24.000 C49.657,24.000 51.000,25.343 51.000,27.000 L51.000,29.000 L18.000,29.000 L18.000,27.000 C18.000,25.343 19.343,24.000 21.000,24.000 Z" class="cls-12"/>
      <path d="M18.000,29.000 L51.000,29.000 L51.000,55.000 C51.000,56.657 49.657,58.000 48.000,58.000 L21.000,58.000 C19.343,58.000 18.000,56.657 18.000,55.000 L18.000,29.000 Z" class="cls-3"/>
      <path d="M21.000,61.000 L48.000,61.000 C49.657,61.000 51.000,62.343 51.000,64.000 L51.000,66.000 L18.000,66.000 L18.000,64.000 C18.000,62.343 19.343,61.000 21.000,61.000 Z" class="cls-12"/>
      <path d="M18.000,66.000 L51.000,66.000 L51.000,93.000 C51.000,94.657 49.657,96.000 48.000,96.000 L21.000,96.000 C19.343,96.000 18.000,94.657 18.000,93.000 L18.000,66.000 Z" class="cls-3"/>
      <rect x="22" y="70" width="25" height="22" rx="2" ry="2" class="cls-13"/>
      <rect x="35" y="32" width="13" height="3" rx="1" ry="1" class="cls-13"/>
      <path d="M21.500,33.000 L32.500,33.000 C32.776,33.000 33.000,33.224 33.000,33.500 C33.000,33.776 32.776,34.000 32.500,34.000 L21.500,34.000 C21.224,34.000 21.000,33.776 21.000,33.500 C21.000,33.224 21.224,33.000 21.500,33.000 Z" class="cls-14"/>
      <rect x="35" y="37" width="13" height="3" rx="1" ry="1" class="cls-13"/>
      <path d="M21.500,38.000 L32.500,38.000 C32.776,38.000 33.000,38.224 33.000,38.500 C33.000,38.776 32.776,39.000 32.500,39.000 L21.500,39.000 C21.224,39.000 21.000,38.776 21.000,38.500 C21.000,38.224 21.224,38.000 21.500,38.000 Z" class="cls-14"/>
      <rect x="35" y="42" width="13" height="3" rx="1" ry="1" class="cls-13"/>
      <path d="M21.500,43.000 L32.500,43.000 C32.776,43.000 33.000,43.224 33.000,43.500 C33.000,43.776 32.776,44.000 32.500,44.000 L21.500,44.000 C21.224,44.000 21.000,43.776 21.000,43.500 C21.000,43.224 21.224,43.000 21.500,43.000 Z" class="cls-14"/>
      <rect x="35" y="47" width="13" height="3" rx="1" ry="1" class="cls-13"/>
      <path d="M21.500,48.000 L32.500,48.000 C32.776,48.000 33.000,48.224 33.000,48.500 C33.000,48.776 32.776,49.000 32.500,49.000 L21.500,49.000 C21.224,49.000 21.000,48.776 21.000,48.500 C21.000,48.224 21.224,48.000 21.500,48.000 Z" class="cls-14"/>
      <rect x="35" y="52" width="13" height="3" rx="1" ry="1" class="cls-13"/>
      <path d="M21.500,53.000 L32.500,53.000 C32.776,53.000 33.000,53.224 33.000,53.500 C33.000,53.776 32.776,54.000 32.500,54.000 L21.500,54.000 C21.224,54.000 21.000,53.776 21.000,53.500 C21.000,53.224 21.224,53.000 21.500,53.000 Z" class="cls-14"/>
      <rect x="54" y="24" width="33" height="72" rx="3" ry="3" class="cls-6"/>
      <path d="M57.000,24.000 L84.000,24.000 C85.657,24.000 87.000,25.343 87.000,27.000 L87.000,29.000 L54.000,29.000 L54.000,27.000 C54.000,25.343 55.343,24.000 57.000,24.000 Z" class="cls-12"/>
      <rect x="58" y="32" width="25" height="18" rx="2" ry="2" class="cls-13"/>
      <rect x="58" y="54" width="25" height="39" rx="2" ry="2" class="cls-13"/>
    </g>
  </g>
</svg>
