<svg xmlns="http://www.w3.org/2000/svg" xmlns:xlink="http://www.w3.org/1999/xlink" preserveAspectRatio="xMidYMid" width="93" height="97" viewBox="0 0 93 97">
  <defs>
    <style>
      .cls-1 {
        fill: #f5edf7;
        stroke: #c4a3cd;
        stroke-width: 2px;
        stroke-dasharray: 8,4;
      }

      .cls-2 {
        fill: #c4a3cd;
      }

      .cls-3, .cls-4 {
        fill: #fff;
      }

      .cls-4 {
        fill-rule: evenodd;
      }
    </style>
  </defs>
  <g>
    <rect x="16" width="77" height="80" rx="3" ry="3" class="cls-1"/>
    <g>
      <rect y="17" width="77" height="80" rx="3" ry="3" class="cls-2"/>
      <rect x="38" y="29" width="32" height="7" rx="2" ry="2" class="cls-3"/>
      <path d="M8.500,31.000 L32.500,31.000 C33.328,31.000 34.000,31.672 34.000,32.500 C34.000,33.328 33.328,34.000 32.500,34.000 L8.500,34.000 C7.672,34.000 7.000,33.328 7.000,32.500 C7.000,31.672 7.672,31.000 8.500,31.000 Z" class="cls-4"/>
      <rect x="38" y="42" width="32" height="7" rx="2" ry="2" class="cls-3"/>
      <path d="M8.500,44.000 L32.500,44.000 C33.328,44.000 34.000,44.672 34.000,45.500 C34.000,46.328 33.328,47.000 32.500,47.000 L8.500,47.000 C7.672,47.000 7.000,46.328 7.000,45.500 C7.000,44.672 7.672,44.000 8.500,44.000 Z" class="cls-4"/>
      <rect x="38" y="55" width="32" height="7" rx="2" ry="2" class="cls-3"/>
      <path d="M8.500,57.000 L32.500,57.000 C33.328,57.000 34.000,57.672 34.000,58.500 C34.000,59.328 33.328,60.000 32.500,60.000 L8.500,60.000 C7.672,60.000 7.000,59.328 7.000,58.500 C7.000,57.672 7.672,57.000 8.500,57.000 Z" class="cls-4"/>
      <rect x="38" y="68" width="32" height="7" rx="2" ry="2" class="cls-3"/>
      <path d="M8.500,70.000 L32.500,70.000 C33.328,70.000 34.000,70.672 34.000,71.500 C34.000,72.328 33.328,73.000 32.500,73.000 L8.500,73.000 C7.672,73.000 7.000,72.328 7.000,71.500 C7.000,70.672 7.672,70.000 8.500,70.000 Z" class="cls-4"/>
      <rect x="38" y="81" width="32" height="7" rx="2" ry="2" class="cls-3"/>
      <path d="M8.500,83.000 L32.500,83.000 C33.328,83.000 34.000,83.672 34.000,84.500 C34.000,85.328 33.328,86.000 32.500,86.000 L8.500,86.000 C7.672,86.000 7.000,85.328 7.000,84.500 C7.000,83.672 7.672,83.000 8.500,83.000 Z" class="cls-4"/>
    </g>
  </g>
</svg>
