<?xml version="1.0" encoding="utf-8"?>
<!-- Generator: Adobe Illustrator 19.0.0, SVG Export Plug-In . SVG Version: 6.00 Build 0)  -->
<svg version="1.2" baseProfile="tiny" id="Layer_1" xmlns="http://www.w3.org/2000/svg" xmlns:xlink="http://www.w3.org/1999/xlink"
	 x="0px" y="0px" width="42px" height="34px" viewBox="0 0 42 34" xml:space="preserve">
<g id="XMLID_1_">
	<path id="XMLID_143_" fill="#8DA1C1" d="M9.8,33.8l12.4-8.7c0.7-0.5,0.7-1.8,0-2.4L9.8,14c-0.7-0.5-1.7,0.1-1.7,1.2v17.5
		C8.1,33.7,9.1,34.3,9.8,33.8z"/>
	<path id="XMLID_142_" fill="#E4E9F1" d="M33.3,22.7L21,14c-0.7-0.5-1.6,0.1-1.6,1.2v2.7c0,0.4,0.2,0.7,0.5,1l5.5,3.9
		c0.7,0.5,0.8,1.8,0,2.4L19.8,29c-0.3,0.2-0.5,0.6-0.5,1v2.7c0,1.1,0.9,1.7,1.6,1.2l12.4-8.7C34.1,24.6,34,23.2,33.3,22.7z"/>
</g>
</svg>
