<?xml version="1.0" encoding="utf-8"?>
<!-- Generator: Adobe Illustrator 21.0.0, SVG Export Plug-In . SVG Version: 6.00 Build 0)  -->
<svg version="1.1" id="Layer_1" xmlns="http://www.w3.org/2000/svg" xmlns:xlink="http://www.w3.org/1999/xlink" x="0px" y="0px"
	 viewBox="0 0 1544 600" style="enable-background:new 0 0 1544 600;" xml:space="preserve">
<style type="text/css">
	.st0{fill:#EBF4F8;}
	.st1{fill:#DFE9ED;}
	.st2{fill:#75685A;}
	.st3{fill:#C2E2C8;}
	.st4{fill:#ACD1AF;}
	.st5{fill:#D73D32;}
	.st6{fill:#96281B;}
	.st7{fill:#CCCCCC;}
	.st8{fill-rule:evenodd;clip-rule:evenodd;fill:#E57368;}
	.st9{fill-rule:evenodd;clip-rule:evenodd;fill:#993A3A;}
	.st10{fill:#F44440;}
	.st11{fill:#F27935;}
	.st12{fill:#FFFFFF;}
	.st13{fill:#BC5779;}
	.st14{fill:#DB0A5B;}
	.st15{fill:#DC4437;}
	.st16{fill:#EF4836;}
	.st17{fill-rule:evenodd;clip-rule:evenodd;fill:#E04E3F;}
	.st18{fill-rule:evenodd;clip-rule:evenodd;fill:#EFEFEF;}
	.st19{fill-rule:evenodd;clip-rule:evenodd;fill:#EB5D46;}
	.st20{fill-rule:evenodd;clip-rule:evenodd;fill:#FFFFFF;}
	.st21{fill:#03A678;}
	.st22{fill:#0FB783;}
	.st23{fill:#F9B256;}
	.st24{fill:#E8963D;}
	.st25{fill:#FBD099;}
	.st26{fill-rule:evenodd;clip-rule:evenodd;fill:#FBD099;}
	.st27{fill-rule:evenodd;clip-rule:evenodd;fill:#C18F59;}
	.st28{fill:#EB9532;}
	.st29{fill-rule:evenodd;clip-rule:evenodd;fill:#E8963D;}
	.st30{fill:#E04E3F;}
	.st31{fill:#C2E1C7;}
	.st32{fill:#14996D;}
	.st33{fill:#A2DED0;}
	.st34{fill:#65C6BB;}
	.st35{fill:#2C626B;}
	.st36{fill:#336E7B;}
	.st37{fill:#7F8C8D;}
	.st38{fill:url(#XMLID_70_);}
	.st39{fill-rule:evenodd;clip-rule:evenodd;fill:#A2DED0;}
	.st40{fill-rule:evenodd;clip-rule:evenodd;fill:#65C6BB;}
	.st41{fill:#F7971E;}
	.st42{fill:#F15723;}
	.st43{fill:#663F30;}
	.st44{fill:#F0851D;}
	.st45{fill:#77493A;}
	.st46{fill:#4D4D4D;}
	.st47{fill-rule:evenodd;clip-rule:evenodd;fill:#663F30;}
	.st48{fill-rule:evenodd;clip-rule:evenodd;fill:#F15723;}
	.st49{fill-rule:evenodd;clip-rule:evenodd;fill:#343251;}
</style>
<path id="XMLID_57_" class="st0" d="M1544,310.4V163.6l-94.6,29.1v115.5h-208.6v-0.2h-86.8v-51.8h-143.7v-76.4l-146.3,38.8v82.4
	H661.9v70.9H558.4V184.9h-159V72.1H228.2v112.8H112.9v71.2H0V600h112.9h20.7h94.6h21.1h137.9h12.2h84.1h74.8h103.5h5.4h47.3V412.4
	c0-24.9,20.8-44.8,45.8-44.8h6.5c24.9,0,45.5,19.9,45.5,44.8V600h51.8h0.8h142.9h2.6h139.5h4.2h59.9h26.9h178.6h5.4h70.6h48.6V310.4
	z M48.7,561.9H18.4v-35.4h30.2V561.9z M48.7,508.9H18.4v-35.4h30.2V508.9z M48.7,455.8H18.4v-35.4h30.2V455.8z M48.7,402.7H18.4
	v-35.4h30.2V402.7z M48.7,349.6H18.4v-35.4h30.2V349.6z M102.4,561.9H72.2v-35.4h30.2V561.9z M102.4,508.9H72.2v-35.4h30.2V508.9z
	 M102.4,455.8H72.2v-35.4h30.2V455.8z M102.4,402.7H72.2v-35.4h30.2V402.7z M102.4,349.6H72.2v-35.4h30.2V349.6z M355.3,323.1h-83.1
	V164.9c0-22.8,18.7-41.5,41.5-41.5h0c22.8,0,41.5,18.7,41.5,41.5V323.1z M977.1,257.5h-78.6v-17.6l78.6-24.9V257.5z M1069.2,561.9
	H1039v-35.4h30.2V561.9z M1069.2,508.9H1039v-35.4h30.2V508.9z M1069.2,455.8H1039v-35.4h30.2V455.8z M1069.2,402.7H1039v-35.4h30.2
	V402.7z M1069.2,349.6H1039v-35.4h30.2V349.6z M1122.9,561.9h-30.2v-35.4h30.2V561.9z M1122.9,508.9h-30.2v-35.4h30.2V508.9z
	 M1122.9,455.8h-30.2v-35.4h30.2V455.8z M1122.9,402.7h-30.2v-35.4h30.2V402.7z M1122.9,349.6h-30.2v-35.4h30.2V349.6z
	 M1383.1,384.2h-127.4v-40.7h127.4V384.2z"/>
<g id="XMLID_112_">
	<path id="XMLID_126_" class="st1" d="M933.4,256.9h-97.6v-95.4H691v95.4H556.5V415h-87.6v-60H297.8v-69.7L174,252.5v64.6H52.4V361
		H0v239h52.4H56H174h2.2h120.9h0.7h43.8V449.3c0-21.1,17.4-37.9,38.5-37.9h5.5c21.1,0,38.7,16.8,38.7,37.9V600h40h4.5h87.6h63.3H691
		h10.3H818h17.9h80.1h17.5h106.3V317.2H933.4V256.9z M104.4,531H78.8V501h25.6V531z M104.4,486H78.8v-29.9h25.6V486z M104.4,441.1
		H78.8v-29.9h25.6V441.1z M104.4,396.2H78.8v-29.9h25.6V396.2z M149.9,531h-25.6V501h25.6V531z M149.9,486h-25.6v-29.9h25.6V486z
		 M149.9,441.1h-25.6v-29.9h25.6V441.1z M149.9,396.2h-25.6v-29.9h25.6V396.2z M268.8,318.3h-66.5v-35.9l66.5,21V318.3z
		 M798.6,565.1h-70.3V451.2c0-19.3,15.8-35.1,35.1-35.1h0c19.3,0,35.1,15.8,35.1,35.1V565.1z M798.6,373.8h-70.3V239.9
		c0-19.3,15.8-35.1,35.1-35.1h0c19.3,0,35.1,15.8,35.1,35.1V373.8z M987.7,366.3h25.6v29.9h-25.6V366.3z M987.7,411.2h25.6v29.9
		h-25.6V411.2z M987.7,456.1h25.6V486h-25.6V456.1z M987.7,501h25.6V531h-25.6V501z M942.3,366.3h25.6v29.9h-25.6V366.3z
		 M942.3,411.2h25.6v29.9h-25.6V411.2z M942.3,456.1h25.6V486h-25.6V456.1z M942.3,501h25.6V531h-25.6V501z"/>
	<path id="XMLID_163_" class="st1" d="M1330.1,356.5v-99.4l-94.3-25v126.4l-65.4-17.4V416h-130.6v184h34.5V489.3
		c0-16.3,13.3-29.7,29.6-29.7h4.2c16.3,0,29.8,13.4,29.8,29.7V600h32.4h2.1h63.3h28.9h60.8h4.6H1507V356.5H1330.1z M1471,422h-109.7
		v-35H1471V422z"/>
</g>
<g id="XMLID_478_">
	<g id="XMLID_565_">
		
			<rect id="XMLID_28_" x="257.6" y="550.8" transform="matrix(-1 -4.488599e-11 4.488599e-11 -1 534.9366 1150.8)" class="st2" width="19.8" height="49.2"/>
		<polygon id="XMLID_27_" class="st3" points="346.1,568.2 248.9,313 223.6,546.7 		"/>
		<polygon id="XMLID_29_" class="st4" points="332.2,571.9 241.7,330.1 218.1,551.5 		"/>
	</g>
	<g id="XMLID_479_">
		<rect id="XMLID_96_" x="69.8" y="458.2" class="st5" width="192.6" height="135.3"/>
		<rect id="XMLID_95_" x="143" y="488.2" class="st6" width="113" height="80.7"/>
		<rect id="XMLID_94_" x="85.6" y="483.4" class="st6" width="43.6" height="110.1"/>
		<rect id="XMLID_93_" x="88" y="490" class="st5" width="38.7" height="103.6"/>
		<rect id="XMLID_92_" x="92.1" y="494.2" class="st6" width="30.5" height="74.7"/>
		<rect id="XMLID_91_" x="41.3" y="592.2" class="st7" width="250" height="7.8"/>
		<rect id="XMLID_90_" x="141.4" y="566.2" class="st8" width="116.1" height="5"/>
		<rect id="XMLID_89_" x="141.4" y="571.2" class="st9" width="116.1" height="2.2"/>
		<rect id="XMLID_88_" x="92.1" y="573.3" class="st10" width="30.5" height="15.6"/>
		<rect id="XMLID_87_" x="129.1" y="583.1" class="st10" width="134.9" height="9.1"/>
		<rect id="XMLID_86_" x="66.6" y="583.1" class="st10" width="18.8" height="9.1"/>
		<rect id="XMLID_85_" x="69.9" y="406.2" class="st11" width="192.5" height="43.5"/>
		<rect id="XMLID_84_" x="73.2" y="409.7" class="st12" width="185.7" height="36.4"/>
		<rect id="XMLID_83_" x="166.3" y="531.7" class="st13" width="19.1" height="34.4"/>
		<rect id="XMLID_60_" x="239.2" y="518" class="st11" width="13.9" height="48.2"/>
		<rect id="XMLID_59_" x="147.2" y="509.4" class="st14" width="9.7" height="56.7"/>
		<rect id="XMLID_58_" x="151.4" y="544.5" class="st15" width="19.1" height="21.7"/>
		<rect id="XMLID_54_" x="211.2" y="540.8" class="st16" width="22.9" height="25.3"/>
		<rect id="XMLID_53_" x="225.4" y="554.9" class="st14" width="21" height="11.3"/>
		<g id="XMLID_513_">
			<path id="XMLID_52_" class="st17" d="M64.8,496.9c4.6,0,8.4-3.7,8.4-8.4v-3H56.4v3C56.4,493.1,60.1,496.9,64.8,496.9z"/>
			<path id="XMLID_51_" class="st18" d="M81.7,496.9c4.6,0,8.4-3.7,8.4-8.4v-3H73.3v3C73.3,493.1,77.1,496.9,81.7,496.9z"/>
			<path id="XMLID_50_" class="st17" d="M98.6,496.9c4.6,0,8.4-3.7,8.4-8.4v-3H90.2v3C90.2,493.1,94,496.9,98.6,496.9z"/>
			<path id="XMLID_49_" class="st18" d="M115.5,496.9c4.6,0,8.4-3.7,8.4-8.4v-3h-16.8v3C107.1,493.1,110.9,496.9,115.5,496.9z"/>
			<path id="XMLID_48_" class="st17" d="M132.4,496.9c4.6,0,8.4-3.7,8.4-8.4v-3h-16.8v3C124.1,493.1,127.8,496.9,132.4,496.9z"/>
			<path id="XMLID_47_" class="st18" d="M149.4,496.9c4.6,0,8.4-3.7,8.4-8.4v-3H141v3C141,493.1,144.7,496.9,149.4,496.9z"/>
			<path id="XMLID_46_" class="st17" d="M166.3,496.9c4.6,0,8.4-3.7,8.4-8.4v-3h-16.8v3C157.9,493.1,161.6,496.9,166.3,496.9z"/>
			<path id="XMLID_45_" class="st18" d="M183.2,496.9c4.6,0,8.4-3.7,8.4-8.4v-3h-16.8v3C174.8,493.1,178.5,496.9,183.2,496.9z"/>
			<path id="XMLID_44_" class="st17" d="M200.1,496.9c4.6,0,8.4-3.7,8.4-8.4v-3h-16.8v3C191.7,493.1,195.5,496.9,200.1,496.9z"/>
			<path id="XMLID_43_" class="st18" d="M217,496.9c4.6,0,8.4-3.7,8.4-8.4v-3h-16.8v3C208.6,493.1,212.4,496.9,217,496.9z"/>
			<path id="XMLID_42_" class="st17" d="M233.9,496.9c4.6,0,8.4-3.7,8.4-8.4v-3h-16.8v3C225.6,493.1,229.3,496.9,233.9,496.9z"/>
			<path id="XMLID_41_" class="st17" d="M267.6,496.9c4.6,0,8.4-3.7,8.4-8.4v-3h-16.8v3C259.2,493.1,263,496.9,267.6,496.9z"/>
			<polygon id="XMLID_40_" class="st19" points="84.6,449.7 69.9,449.7 56.4,485.4 73.2,485.4 			"/>
			<polygon id="XMLID_39_" class="st20" points="99.4,449.7 84.7,449.7 73.3,485.4 90.1,485.4 			"/>
			<polygon id="XMLID_38_" class="st19" points="114.3,449.7 99.6,449.7 90.2,485.4 107,485.4 			"/>
			<polygon id="XMLID_37_" class="st20" points="129.1,449.7 114.4,449.7 107.1,485.4 123.9,485.4 			"/>
			<polygon id="XMLID_36_" class="st19" points="144,449.7 129.2,449.7 124.1,485.4 140.8,485.4 			"/>
			<polygon id="XMLID_35_" class="st20" points="158.8,449.7 144.1,449.7 141,485.4 157.8,485.4 			"/>
			<polygon id="XMLID_34_" class="st19" points="173.6,449.7 158.9,449.7 157.9,485.4 174.7,485.4 			"/>
			<polygon id="XMLID_33_" class="st20" points="188.5,449.7 173.7,449.7 174.8,485.4 191.6,485.4 			"/>
			<polygon id="XMLID_32_" class="st19" points="203.3,449.7 188.6,449.7 191.7,485.4 208.5,485.4 			"/>
			<polygon id="XMLID_31_" class="st20" points="218.1,449.7 203.4,449.7 208.6,485.4 225.4,485.4 			"/>
			<polygon id="XMLID_30_" class="st19" points="233,449.7 218.3,449.7 225.6,485.4 242.3,485.4 			"/>
			<polygon id="XMLID_26_" class="st19" points="262.5,449.7 247.8,449.7 259.2,485.4 276,485.4 			"/>
			<polygon id="XMLID_25_" class="st20" points="247.8,449.7 233.1,449.7 242.5,485.4 259.2,485.4 			"/>
			<path id="XMLID_24_" class="st18" d="M250.9,496.9c4.6,0,8.4-3.7,8.4-8.4v-3h-16.8v3C242.5,493.1,246.2,496.9,250.9,496.9z"/>
		</g>
		<circle id="XMLID_23_" class="st10" cx="107.4" cy="541.4" r="9.3"/>
		<polygon id="XMLID_22_" class="st6" points="73.9,561.5 41.9,561.5 45.5,592.2 70.3,592.2 		"/>
		<g id="XMLID_503_">
			
				<ellipse id="XMLID_21_" transform="matrix(0.9842 -0.1769 0.1769 0.9842 -98.0663 17.958)" class="st21" cx="51.7" cy="559.1" rx="8.1" ry="8.1"/>
			
				<ellipse id="XMLID_20_" transform="matrix(0.9842 -0.1769 0.1769 0.9842 -97.9913 19.7879)" class="st21" cx="62" cy="559.6" rx="8.1" ry="8.1"/>
			
				<ellipse id="XMLID_19_" transform="matrix(0.9842 -0.1769 0.1769 0.9842 -96.4435 20.5057)" class="st21" cx="66.8" cy="551.2" rx="4.7" ry="4.7"/>
			
				<ellipse id="XMLID_18_" transform="matrix(0.9842 -0.1769 0.1769 0.9842 -97.9968 16.5275)" class="st21" cx="43.7" cy="558" rx="4.7" ry="4.7"/>
			
				<ellipse id="XMLID_17_" transform="matrix(0.9842 -0.1769 0.1769 0.9842 -97.3303 21.4304)" class="st21" cx="71.5" cy="556.7" rx="5.3" ry="5.3"/>
			
				<ellipse id="XMLID_16_" transform="matrix(0.9842 -0.1769 0.1769 0.9842 -96.9837 17.0522)" class="st21" cx="47.2" cy="552.6" rx="3.3" ry="3.3"/>
			
				<ellipse id="XMLID_15_" transform="matrix(0.9842 -0.1769 0.1769 0.9842 -96.1662 18.6603)" class="st21" cx="56.6" cy="548.8" rx="10.6" ry="10.6"/>
		</g>
		<circle id="XMLID_14_" class="st22" cx="49.1" cy="550.7" r="1.9"/>
		<circle id="XMLID_13_" class="st22" cx="66.8" cy="546.5" r="1.3"/>
		<circle id="XMLID_12_" class="st22" cx="53.9" cy="541.4" r="1.3"/>
		<circle id="XMLID_11_" class="st22" cx="41.9" cy="558.8" r="0.9"/>
		<circle id="XMLID_10_" class="st22" cx="68.2" cy="560" r="3.2"/>
		<circle id="XMLID_9_" class="st22" cx="50.8" cy="557.3" r="3.7"/>
		<circle id="XMLID_8_" class="st22" cx="59.8" cy="545.9" r="3.5"/>
		<g id="XMLID_480_">
			<path id="XMLID_493_" class="st5" d="M121.9,427.9c0-5.3,4.5-9.6,9.8-9.6c2.3,0,4.5,0.8,6.2,2.1c0.6,0.5,0.7,1.5,0.3,2.1
				c-0.5,0.7-1.5,0.8-2.1,0.3c-1.2-1-2.6-1.5-4.3-1.5c-1.8,0-3.5,0.7-4.8,1.9c-1.2,1.2-1.9,2.8-1.9,4.6s0.7,3.5,1.9,4.6
				c1.3,1.2,3,1.9,4.8,1.9c1.7,0,3.1-0.5,4.3-1.5c0.6-0.5,1.6-0.3,2.1,0.3c0.5,0.7,0.4,1.6-0.3,2.1c-1.7,1.3-3.8,2.1-6.2,2.1
				C126.4,437.5,122,433.2,121.9,427.9z"/>
			<path id="XMLID_490_" class="st5" d="M152.5,433.1H146l-1.3,3.5c-0.2,0.6-0.8,0.9-1.4,0.9c-0.2,0-0.3,0-0.5-0.1
				c-0.8-0.3-1.1-1.1-0.9-1.9l5.9-15.7c0.2-0.6,0.8-1,1.4-0.9c0.6,0,1.2,0.3,1.4,0.9l5.9,15.7c0.3,0.8-0.1,1.6-0.9,1.9
				c-0.1,0.1-0.3,0.1-0.5,0.1c-0.6,0-1.1-0.3-1.4-0.9L152.5,433.1z M151.4,430.2l-2.2-5.7l-2.2,5.7H151.4z"/>
			<path id="XMLID_488_" class="st5" d="M163.1,436.1c0,0.8-0.7,1.5-1.4,1.5c-0.8,0-1.5-0.7-1.5-1.5v-15.5c0,0,0,0,0,0
				c0-0.5,0.2-0.9,0.6-1.2c0.7-0.5,1.6-0.3,2,0.3l8.6,11.9v-11c0-0.8,0.6-1.4,1.4-1.4c0.8,0,1.5,0.7,1.5,1.4v15.5
				c0,0.8-0.7,1.5-1.5,1.5c-0.4,0-0.8-0.2-1.1-0.5c-0.1-0.1-0.1-0.1-0.1-0.2l-8.5-11.8V436.1z"/>
			<path id="XMLID_485_" class="st5" d="M179.4,436.1v-15.7c0-0.8,0.6-1.5,1.5-1.5h3.1c5.1,0,9.3,4.2,9.3,9.3c0,5.2-4.2,9.4-9.3,9.4
				h-3.1C180,437.5,179.4,436.9,179.4,436.1z M182.4,434.6h1.7c3.5,0,6.3-2.9,6.3-6.4c0-3.5-2.8-6.3-6.3-6.3h-1.7V434.6z"/>
			<path id="XMLID_483_" class="st5" d="M209.8,421.4l-5.5,7.5v7.2c0,0.8-0.6,1.5-1.5,1.5c-0.8,0-1.5-0.6-1.5-1.5v-7.2l-5.4-7.5
				c-0.5-0.6-0.4-1.5,0.3-2c0.7-0.5,1.6-0.3,2,0.3l4.6,6.2l4.6-6.2c0.5-0.7,1.4-0.8,2.1-0.3C210.1,419.8,210.3,420.7,209.8,421.4z"
				/>
		</g>
	</g>
</g>
<g id="XMLID_205_">
	<g id="XMLID_210_">
		<g id="XMLID_228_">
			<ellipse id="XMLID_203_" class="st23" cx="523.6" cy="418" rx="54.7" ry="25.2"/>
			
				<rect id="XMLID_202_" x="441.5" y="459.6" transform="matrix(-1 -1.224647e-16 1.224647e-16 -1 1046.6802 1054.2777)" class="st23" width="163.6" height="135.1"/>
			<path id="XMLID_201_" class="st6" d="M451.6,558.3h99.5v-41.7c0-10.2-8.3-18.5-18.5-18.5h-62.5c-10.2,0-18.5,8.3-18.5,18.5V558.3
				z"/>
			<path id="XMLID_294_" class="st24" d="M552.3,559.5H450.4v-42.8c0-10.8,8.8-19.7,19.7-19.7h62.5c10.8,0,19.7,8.8,19.7,19.7V559.5
				z M452.8,557.1h97.2v-40.5c0-9.5-7.8-17.3-17.3-17.3h-62.5c-9.5,0-17.3,7.8-17.3,17.3V557.1z"/>
			
				<rect id="XMLID_198_" x="559.9" y="497" transform="matrix(-1 -1.224647e-16 1.224647e-16 -1 1156.8191 1090.2573)" class="st24" width="37.1" height="96.3"/>
			
				<rect id="XMLID_197_" x="562" y="499.5" transform="matrix(-1 -1.224647e-16 1.224647e-16 -1 1156.8191 1093.3574)" class="st23" width="32.9" height="94.3"/>
			
				<rect id="XMLID_196_" x="565.5" y="503" transform="matrix(-1 -1.224647e-16 1.224647e-16 -1 1156.8191 1061.4985)" class="st6" width="25.9" height="55.5"/>
			
				<rect id="XMLID_195_" x="417" y="593.3" transform="matrix(-1 -1.224647e-16 1.224647e-16 -1 1046.4065 1193.3363)" class="st7" width="212.4" height="6.7"/>
			
				<rect id="XMLID_194_" x="597" y="581.8" transform="matrix(-1 -1.224647e-16 1.224647e-16 -1 1204.9309 1175.1326)" class="st25" width="10.9" height="11.5"/>
			<path id="XMLID_193_" class="st23" d="M449.8,412.8h147.1c4.5,0,8.2,3.7,8.2,8.2v28.8H441.5V421
				C441.5,416.5,445.2,412.8,449.8,412.8z"/>
			<path id="XMLID_101_" class="st12" d="M449.8,415.8H597c2.9,0,5.3,2.4,5.3,5.3v25.7H444.6v-25.7
				C444.6,418.2,446.9,415.8,449.8,415.8z"/>
			<ellipse id="XMLID_192_" class="st12" cx="523.6" cy="418" rx="51.2" ry="22.5"/>
			<rect id="XMLID_191_" x="461.2" y="518.7" class="st11" width="2.8" height="39.3"/>
			<rect id="XMLID_190_" x="538.3" y="518.7" class="st11" width="2.8" height="39.3"/>
			<rect id="XMLID_189_" x="499.7" y="518.7" class="st11" width="2.8" height="39.3"/>
			
				<rect id="XMLID_188_" x="500" y="480.9" transform="matrix(6.123234e-17 -1 1 6.123234e-17 -18.7698 1021.5308)" class="st11" width="2.8" height="78.6"/>
			
				<rect id="XMLID_187_" x="500" y="495.9" transform="matrix(6.123234e-17 -1 1 6.123234e-17 -33.8473 1036.6082)" class="st11" width="2.8" height="78.6"/>
			
				<rect id="XMLID_186_" x="500" y="511" transform="matrix(6.123234e-17 -1 1 6.123234e-17 -48.9248 1051.6857)" class="st11" width="2.8" height="78.6"/>
			<rect id="XMLID_185_" x="570.1" y="539.1" class="st25" width="15.7" height="4.8"/>
			<rect id="XMLID_184_" x="570.7" y="519.7" class="st25" width="14.4" height="11.5"/>
			
				<rect id="XMLID_183_" x="450.4" y="556.8" transform="matrix(-1 -1.224647e-16 1.224647e-16 -1 1002.8329 1118.9998)" class="st26" width="102.1" height="5.5"/>
			
				<rect id="XMLID_182_" x="450.4" y="562.1" transform="matrix(-1 -1.224647e-16 1.224647e-16 -1 1002.8329 1126.4589)" class="st27" width="102.1" height="2.2"/>
			<path id="XMLID_181_" class="st28" d="M486.6,531.6c0,2-4,2.2-8.9,2.2c-4.9,0-8.9-0.2-8.9-2.2c0-2,4-5,8.9-5
				C482.6,526.5,486.6,529.6,486.6,531.6z"/>
			<path id="XMLID_180_" class="st25" d="M509.8,531.6c0,2-4,2.2-8.9,2.2c-4.9,0-8.9-0.2-8.9-2.2c0-2,4-5,8.9-5
				C505.9,526.5,509.8,529.6,509.8,531.6z"/>
			<path id="XMLID_179_" class="st25" d="M533.1,531.6c0,2-4,2.2-8.9,2.2c-4.9,0-8.9-0.2-8.9-2.2c0-2,4-5,8.9-5
				C529.1,526.5,533.1,529.6,533.1,531.6z"/>
			<path id="XMLID_178_" class="st25" d="M568.8,418.5c0,8.1-20.2,9-45.1,9c-24.9,0-45.1-0.9-45.1-9c0-8.1,20.2-20.3,45.1-20.3
				C548.6,398.2,568.8,410.4,568.8,418.5z"/>
			<circle id="XMLID_177_" class="st25" cx="473.9" cy="543.6" r="5.3"/>
			<circle id="XMLID_176_" class="st25" cx="489.2" cy="543.6" r="5.3"/>
			<circle id="XMLID_175_" class="st28" cx="512.1" cy="543.6" r="5.3"/>
			<circle id="XMLID_174_" class="st28" cx="527.3" cy="543.6" r="5.3"/>
			<rect id="XMLID_173_" x="565.5" y="563.7" class="st24" width="25.9" height="24.9"/>
			<rect id="XMLID_172_" x="568.1" y="566.2" class="st23" width="20.7" height="19.9"/>
			<g id="XMLID_239_">
				<path id="XMLID_171_" class="st17" d="M609.4,495.6c-3.9,0-7.1-3.2-7.1-7.1v-2.6h14.3v2.6C616.6,492.4,613.4,495.6,609.4,495.6z
					"/>
				<path id="XMLID_170_" class="st18" d="M595.1,495.6c-3.9,0-7.1-3.2-7.1-7.1v-2.6h14.3v2.6C602.2,492.4,599,495.6,595.1,495.6z"
					/>
				<path id="XMLID_169_" class="st17" d="M580.7,495.6c-3.9,0-7.1-3.2-7.1-7.1v-2.6h14.3v2.6C587.8,492.4,584.6,495.6,580.7,495.6z
					"/>
				<path id="XMLID_168_" class="st18" d="M566.3,495.6c-3.9,0-7.1-3.2-7.1-7.1v-2.6h14.3v2.6C573.4,492.4,570.3,495.6,566.3,495.6z
					"/>
				<path id="XMLID_167_" class="st17" d="M551.9,495.6c-3.9,0-7.1-3.2-7.1-7.1v-2.6h14.3v2.6C559.1,492.4,555.9,495.6,551.9,495.6z
					"/>
				<path id="XMLID_166_" class="st18" d="M537.6,495.6c-3.9,0-7.1-3.2-7.1-7.1v-2.6h14.3v2.6C544.7,492.4,541.5,495.6,537.6,495.6z
					"/>
				<path id="XMLID_165_" class="st17" d="M523.2,495.6c-3.9,0-7.1-3.2-7.1-7.1v-2.6h14.3v2.6C530.3,492.4,527.1,495.6,523.2,495.6z
					"/>
				<path id="XMLID_164_" class="st18" d="M508.8,495.6c-3.9,0-7.1-3.2-7.1-7.1v-2.6H516v2.6C516,492.4,512.8,495.6,508.8,495.6z"/>
				<path id="XMLID_160_" class="st17" d="M494.5,495.6c-3.9,0-7.1-3.2-7.1-7.1v-2.6h14.3v2.6C501.6,492.4,498.4,495.6,494.5,495.6z
					"/>
				<path id="XMLID_155_" class="st18" d="M480.1,495.6c-3.9,0-7.1-3.2-7.1-7.1v-2.6h14.3v2.6C487.2,492.4,484,495.6,480.1,495.6z"
					/>
				<path id="XMLID_143_" class="st17" d="M465.7,495.6c-3.9,0-7.1-3.2-7.1-7.1v-2.6h14.3v2.6C472.8,492.4,469.7,495.6,465.7,495.6z
					"/>
				<path id="XMLID_138_" class="st17" d="M437.1,495.6c-3.9,0-7.1-3.2-7.1-7.1v-2.6h14.3v2.6C444.2,492.4,441,495.6,437.1,495.6z"
					/>
				<polygon id="XMLID_137_" class="st19" points="592.6,455.5 605.1,455.5 616.6,485.9 602.3,485.9 				"/>
				<polygon id="XMLID_136_" class="st20" points="580,455.5 592.5,455.5 602.2,485.9 587.9,485.9 				"/>
				<polygon id="XMLID_135_" class="st19" points="567.4,455.5 579.9,455.5 587.8,485.9 573.6,485.9 				"/>
				<polygon id="XMLID_134_" class="st20" points="554.8,455.5 567.3,455.5 573.4,485.9 559.2,485.9 				"/>
				<polygon id="XMLID_133_" class="st19" points="542.2,455.5 554.7,455.5 559.1,485.9 544.8,485.9 				"/>
				<polygon id="XMLID_132_" class="st20" points="529.6,455.5 542.1,455.5 544.7,485.9 530.4,485.9 				"/>
				<polygon id="XMLID_131_" class="st19" points="517,455.5 529.5,455.5 530.3,485.9 516.1,485.9 				"/>
				<polygon id="XMLID_130_" class="st20" points="504.4,455.5 516.9,455.5 516,485.9 501.7,485.9 				"/>
				<polygon id="XMLID_129_" class="st19" points="491.7,455.5 504.2,455.5 501.6,485.9 487.3,485.9 				"/>
				<polygon id="XMLID_128_" class="st20" points="479.1,455.5 491.6,455.5 487.2,485.9 473,485.9 				"/>
				<polygon id="XMLID_127_" class="st19" points="466.5,455.5 479,455.5 472.8,485.9 458.6,485.9 				"/>
				<polygon id="XMLID_125_" class="st19" points="441.4,455.5 453.9,455.5 444.2,485.9 430,485.9 				"/>
				<polygon id="XMLID_124_" class="st20" points="453.9,455.5 466.4,455.5 458.5,485.9 444.2,485.9 				"/>
				<path id="XMLID_123_" class="st18" d="M451.3,495.6c-3.9,0-7.1-3.2-7.1-7.1v-2.6h14.3v2.6C458.5,492.4,455.3,495.6,451.3,495.6z
					"/>
			</g>
			<rect id="XMLID_122_" x="435.3" y="449" class="st29" width="175.4" height="6.8"/>
			
				<rect id="XMLID_121_" x="438.6" y="581.8" transform="matrix(-1 -1.224647e-16 1.224647e-16 -1 998.5544 1175.1326)" class="st25" width="121.3" height="11.5"/>
			<g id="XMLID_229_">
				<path id="XMLID_120_" class="st30" d="M463.3,570.3h-34.7c-1.3,0-2.4-1.1-2.4-2.4v0c0-1.3,1.1-2.4,2.4-2.4h34.7
					c1.3,0,2.4,1.1,2.4,2.4v0C465.7,569.2,464.6,570.3,463.3,570.3z"/>
				<g id="XMLID_233_">
					<rect id="XMLID_119_" x="431.4" y="570.3" class="st6" width="2.4" height="23.1"/>
					<rect id="XMLID_118_" x="458" y="570.3" class="st6" width="2.4" height="23.1"/>
				</g>
				<path id="XMLID_117_" class="st30" d="M482.7,579.7h-16.2v-0.6c0-1.4,1.1-2.5,2.5-2.5h13.6V579.7z"/>
				<rect id="XMLID_116_" x="466.5" y="579.2" class="st30" width="1.5" height="14.1"/>
				<path id="XMLID_115_" class="st30" d="M482.7,593.3h-1.5v-31.1c0-0.4,0.3-0.7,0.7-0.7l0,0c0.4,0,0.7,0.3,0.7,0.7V593.3z"/>
			</g>
		</g>
		<g id="XMLID_211_">
			<path id="XMLID_224_" class="st6" d="M472.8,439.4v-16.5c0-0.9,0.7-1.5,1.5-1.5c0,0,0,0,0.1,0c0,0,0,0,0,0h3.8
				c2.9,0,5.3,2.4,5.3,5.3c0,1.2-0.4,2.3-1.1,3.2c1.7,1.1,2.8,2.9,2.8,5c0,3.3-2.7,6-6,6h-4.9c0,0,0,0,0,0c-0.1,0-0.1,0-0.1,0
				C473.5,440.9,472.8,440.2,472.8,439.4z M475.9,429h2.4c1.2,0,2.2-1,2.2-2.3c0-1.2-1-2.2-2.2-2.2h-2.4V429z M475.9,437.8h3.5
				c1.6,0,2.9-1.3,2.9-2.9c0-1.6-1.3-2.8-2.9-2.9h-3.5V437.8z"/>
			<path id="XMLID_221_" class="st6" d="M498.8,436.3H492l-1.4,3.6c-0.3,0.6-0.8,1-1.5,1c-0.2,0-0.4,0-0.5-0.1
				c-0.8-0.3-1.2-1.2-0.9-2l6.2-16.4c0.3-0.6,0.9-1,1.5-1c0.6,0,1.2,0.4,1.5,1l6.2,16.4c0.3,0.8-0.1,1.7-0.9,2
				c-0.1,0.1-0.3,0.1-0.5,0.1c-0.6,0-1.2-0.4-1.4-1L498.8,436.3z M497.6,433.2l-2.3-6l-2.3,6H497.6z"/>
			<path id="XMLID_219_" class="st6" d="M506.8,439.4v-16.3c0-0.8,0.7-1.5,1.5-1.5c0.9,0,1.5,0.7,1.5,1.5v8l9-9.1
				c0.6-0.6,1.6-0.6,2.2,0c0.6,0.6,0.6,1.6,0,2.2l-6.1,6.1l6.2,8.1c0.6,0.6,0.4,1.6-0.2,2.1c-0.3,0.3-0.6,0.4-1,0.4
				c-0.4,0-0.8-0.2-1.1-0.6l-6-7.9l-2.9,3v4c0,0.8-0.7,1.5-1.5,1.5C507.5,440.9,506.8,440.2,506.8,439.4z"/>
			<path id="XMLID_217_" class="st6" d="M526.8,439.4v-16.5c0-0.9,0.7-1.5,1.5-1.5h0c0,0,0,0,0.1,0h9c0.8,0,1.5,0.7,1.5,1.5
				c0,0.9-0.7,1.6-1.5,1.6h-7.6v5.1h6.5c0.8,0,1.5,0.7,1.5,1.5c0,0.9-0.7,1.6-1.5,1.6h-6.5v5.1h7.6c0.8,0,1.5,0.7,1.5,1.6
				c0,0.8-0.7,1.5-1.5,1.5h-9c-0.1,0-0.1,0-0.1,0l0,0C527.4,440.9,526.8,440.2,526.8,439.4z"/>
			<path id="XMLID_214_" class="st6" d="M556.8,438.6c0.3,0.8-0.2,1.7-1,2c-0.1,0-0.3,0.1-0.6,0.1c0,0,0,0,0,0
				c-0.3,0-0.7-0.1-1.1-0.3c-0.4-0.2-0.7-0.6-0.9-1c-0.4-0.8-0.6-1.8-0.6-3.3c0-0.5-0.1-0.9-0.3-1.2c-0.2-0.3-0.5-0.6-0.8-0.8
				c-0.6-0.4-1.3-0.6-1.6-0.7h-3.3v6.1c0,0.8-0.7,1.5-1.6,1.5c-0.9,0-1.5-0.7-1.5-1.5v-16.5c0-0.9,0.7-1.5,1.5-1.5c0,0,0,0,0,0h5
				c3.3,0,6,2.7,6,6c0,1.8-0.8,3.5-2.2,4.6c0.4,0.3,0.7,0.6,1,1c0.6,0.8,0.9,1.8,0.9,3c0,0.8,0.1,1.4,0.1,1.6
				C556.3,437.8,556.6,438.1,556.8,438.6z M552.9,427.4c0-1.6-1.3-2.9-2.9-2.9h-3.4v5.7h3.4C551.6,430.2,552.9,429,552.9,427.4z"/>
			<path id="XMLID_212_" class="st6" d="M574.2,424l-5.7,7.8v7.5c0,0.9-0.7,1.5-1.5,1.5c-0.8,0-1.5-0.7-1.5-1.5v-7.5l-5.7-7.8
				c-0.5-0.7-0.4-1.6,0.3-2.1c0.7-0.5,1.6-0.4,2.1,0.3l4.8,6.5l4.8-6.5c0.5-0.7,1.5-0.8,2.1-0.3C574.5,422.4,574.7,423.3,574.2,424z
				"/>
		</g>
	</g>
	<g id="XMLID_97_">
		<rect id="XMLID_100_" x="684.2" y="561.9" class="st2" width="15.3" height="38.1"/>
		<path id="XMLID_99_" class="st31" d="M734.4,573c2.6-12,4-23.5,4-36.2c0-48.6-20.8-88.3-46.6-88.3c-25.7,0-46.6,39.8-46.6,88.5
			c0,12.7,1.4,24.1,4,36.1H734.4z"/>
		<path id="XMLID_98_" class="st4" d="M727,565c2.6-11,4-23.2,4-35.9c0-48.6-20.8-88.2-46.6-88.2s-46.6,39.6-46.6,88.2
			c0,12.7,1.4,24.9,4,35.9H727z"/>
	</g>
</g>
<g id="XMLID_501_">
	<path id="XMLID_292_" class="st32" d="M936.1,573.5c-9.3,0-16.8,7.5-16.8,16.8h33.7C952.9,581,945.4,573.5,936.1,573.5z"/>
	<path id="XMLID_291_" class="st32" d="M1097.4,573.5c-9.3,0-16.8,7.5-16.8,16.8h33.7C1114.3,581,1106.7,573.5,1097.4,573.5z"/>
	<path id="XMLID_290_" class="st32" d="M921,579.1c-6.2,0-11.2,5-11.2,11.2h22.4C932.2,584.1,927.2,579.1,921,579.1z"/>
	<path id="XMLID_289_" class="st21" d="M935.2,580.8c-7.3,0-13.3,5.9-13.3,13.3h26.6C948.5,586.7,942.6,580.8,935.2,580.8z"/>
	<path id="XMLID_288_" class="st21" d="M923,586.5c-5.2,0-9.3,4.2-9.3,9.3h18.7C932.4,590.7,928.2,586.5,923,586.5z"/>
	<path id="XMLID_287_" class="st21" d="M909.4,584.5c-5.2,0-9.3,4.2-9.3,9.3h18.7C918.7,588.7,914.5,584.5,909.4,584.5z"/>
	<path id="XMLID_286_" class="st21" d="M1113.6,577.4c-9.2,0-16.6,7.4-16.6,16.6h33.2C1130.2,584.9,1122.8,577.4,1113.6,577.4z"/>
	<path id="XMLID_285_" class="st21" d="M1108.7,586.5c-5.2,0-9.3,4.2-9.3,9.3h18.7C1118,590.7,1113.8,586.5,1108.7,586.5z"/>
	<path id="XMLID_284_" class="st21" d="M1095,584.5c-5.2,0-9.3,4.2-9.3,9.3h18.7C1104.4,588.7,1100.2,584.5,1095,584.5z"/>
	<circle id="XMLID_283_" class="st33" cx="1012.3" cy="437.2" r="40.9"/>
	<rect id="XMLID_282_" x="935.1" y="474.4" class="st34" width="154" height="120.6"/>
	<rect id="XMLID_281_" x="994.4" y="509.7" class="st12" width="79.7" height="65.6"/>
	<path id="XMLID_280_" class="st35" d="M1070.1,577.4h-72.3v-29.8c0-20,16.2-36.1,36.1-36.1l0,0c20,0,36.1,16.2,36.1,36.1V577.4z"/>
	<path id="XMLID_279_" class="st36" d="M1070.1,579.7h-72.3V550c0-20,16.2-36.1,36.1-36.1l0,0c20,0,36.1,16.2,36.1,36.1V579.7z"/>
	<path id="XMLID_278_" class="st36" d="M960.3,509.7L960.3,509.7c-9.6,0-17.4,7.8-17.4,17.4v66.5h34.9v-66.5
		C977.7,517.5,969.9,509.7,960.3,509.7z"/>
	<path id="XMLID_277_" class="st34" d="M960.3,512.1L960.3,512.1c-8.5,0-15.5,6.9-15.5,15.5v66.7h30.9v-66.7
		C975.7,519,968.8,512.1,960.3,512.1z"/>
	<path id="XMLID_276_" class="st35" d="M972.5,567.6h-24.4v-40.1c0-6.7,5.5-12.2,12.2-12.2l0,0c6.7,0,12.2,5.5,12.2,12.2V567.6z"/>
	<path id="XMLID_275_" class="st36" d="M972.5,569.3h-24.4v-40.1c0-6.7,5.5-12.2,12.2-12.2l0,0c6.7,0,12.2,5.5,12.2,12.2V569.3z"/>
	<rect id="XMLID_274_" x="897" y="593.7" class="st37" width="235.8" height="6.3"/>
	<rect id="XMLID_273_" x="977.7" y="586.5" class="st33" width="114.2" height="7.3"/>
	<rect id="XMLID_272_" x="932.5" y="586.5" class="st33" width="10.3" height="7.3"/>
	
		<linearGradient id="XMLID_70_" gradientUnits="userSpaceOnUse" x1="-1815.693" y1="588.4396" x2="-1815.6195" y2="578.517" gradientTransform="matrix(-1 0 0 1 -782.8973 0)">
		<stop  offset="0" style="stop-color:#FFFFFF"/>
		<stop  offset="0.2867" style="stop-color:#FBFBFB"/>
		<stop  offset="0.5946" style="stop-color:#EEEEEF"/>
		<stop  offset="0.9113" style="stop-color:#D8DADB"/>
		<stop  offset="1" style="stop-color:#D1D3D4"/>
	</linearGradient>
	<polygon id="XMLID_271_" class="st38" points="989.1,588.3 1076.4,588.3 1076.4,578.7 989.1,578.7 	"/>
	<g id="XMLID_540_">
		<path id="XMLID_270_" class="st17" d="M931.1,519.3c3.7,0,6.7-3,6.7-6.7v-2.4h-13.4v2.4C924.4,516.3,927.4,519.3,931.1,519.3z"/>
		<path id="XMLID_269_" class="st18" d="M944.6,519.3c3.7,0,6.7-3,6.7-6.7v-2.4h-13.4v2.4C937.9,516.3,940.9,519.3,944.6,519.3z"/>
		<path id="XMLID_268_" class="st17" d="M958.1,519.3c3.7,0,6.7-3,6.7-6.7v-2.4h-13.4v2.4C951.4,516.3,954.4,519.3,958.1,519.3z"/>
		<path id="XMLID_267_" class="st18" d="M971.7,519.3c3.7,0,6.7-3,6.7-6.7v-2.4H965v2.4C965,516.3,967.9,519.3,971.7,519.3z"/>
		<path id="XMLID_266_" class="st17" d="M985.2,519.3c3.7,0,6.7-3,6.7-6.7v-2.4h-13.4v2.4C978.5,516.3,981.5,519.3,985.2,519.3z"/>
		<path id="XMLID_265_" class="st18" d="M998.7,519.3c3.7,0,6.7-3,6.7-6.7v-2.4H992v2.4C992,516.3,995,519.3,998.7,519.3z"/>
		<path id="XMLID_264_" class="st17" d="M1012.2,519.3c3.7,0,6.7-3,6.7-6.7v-2.4h-13.4v2.4C1005.5,516.3,1008.5,519.3,1012.2,519.3z
			"/>
		<path id="XMLID_263_" class="st18" d="M1025.7,519.3c3.7,0,6.7-3,6.7-6.7v-2.4H1019v2.4C1019,516.3,1022,519.3,1025.7,519.3z"/>
		<path id="XMLID_262_" class="st17" d="M1039.2,519.3c3.7,0,6.7-3,6.7-6.7v-2.4h-13.4v2.4C1032.5,516.3,1035.5,519.3,1039.2,519.3z
			"/>
		<path id="XMLID_261_" class="st18" d="M1052.8,519.3c3.7,0,6.7-3,6.7-6.7v-2.4h-13.4v2.4C1046.1,516.3,1049.1,519.3,1052.8,519.3z
			"/>
		<path id="XMLID_260_" class="st17" d="M1066.3,519.3c3.7,0,6.7-3,6.7-6.7v-2.4h-13.4v2.4C1059.6,516.3,1062.6,519.3,1066.3,519.3z
			"/>
		<path id="XMLID_259_" class="st17" d="M1093.2,519.3c3.7,0,6.7-3,6.7-6.7v-2.4h-13.4v2.4C1086.5,516.3,1089.5,519.3,1093.2,519.3z
			"/>
		<polygon id="XMLID_258_" class="st19" points="946.9,481.6 935.2,481.6 924.4,510.1 937.8,510.1 		"/>
		<polygon id="XMLID_257_" class="st20" points="958.8,481.6 947,481.6 937.9,510.1 951.3,510.1 		"/>
		<polygon id="XMLID_256_" class="st19" points="970.7,481.6 958.9,481.6 951.4,510.1 964.8,510.1 		"/>
		<polygon id="XMLID_255_" class="st20" points="982.5,481.6 970.7,481.6 965,510.1 978.4,510.1 		"/>
		<polygon id="XMLID_254_" class="st19" points="994.4,481.6 982.6,481.6 978.5,510.1 991.9,510.1 		"/>
		<polygon id="XMLID_253_" class="st20" points="1006.2,481.6 994.5,481.6 992,510.1 1005.4,510.1 		"/>
		<polygon id="XMLID_252_" class="st19" points="1018.1,481.6 1006.3,481.6 1005.5,510.1 1018.9,510.1 		"/>
		<polygon id="XMLID_251_" class="st20" points="1029.9,481.6 1018.2,481.6 1019,510.1 1032.4,510.1 		"/>
		<polygon id="XMLID_250_" class="st19" points="1041.8,481.6 1030,481.6 1032.5,510.1 1045.9,510.1 		"/>
		<polygon id="XMLID_249_" class="st20" points="1053.7,481.6 1041.9,481.6 1046.1,510.1 1059.5,510.1 		"/>
		<polygon id="XMLID_248_" class="st19" points="1065.5,481.6 1053.8,481.6 1059.6,510.1 1073,510.1 		"/>
		<polygon id="XMLID_247_" class="st19" points="1089.1,481.6 1077.4,481.6 1086.5,510.1 1099.9,510.1 		"/>
		<polygon id="XMLID_246_" class="st20" points="1077.4,481.6 1065.6,481.6 1073.1,510.1 1086.5,510.1 		"/>
		<path id="XMLID_245_" class="st18" d="M1079.8,519.3c3.7,0,6.7-3,6.7-6.7v-2.4h-13.4v2.4C1073.1,516.3,1076.1,519.3,1079.8,519.3z
			"/>
	</g>
	
		<rect id="XMLID_244_" x="953.2" y="549.3" transform="matrix(-1 -1.224647e-16 1.224647e-16 -1 1921.308 1103.2212)" class="st12" width="14.8" height="4.6"/>
	
		<rect id="XMLID_243_" x="953.9" y="531" transform="matrix(-1 -1.224647e-16 1.224647e-16 -1 1921.4146 1072.9)" class="st12" width="13.6" height="10.9"/>
	<rect id="XMLID_242_" x="989.1" y="575.3" class="st39" width="87.3" height="4.7"/>
	<path id="XMLID_241_" class="st33" d="M937,437.2h150.6c11.6,0,21.1,9.4,21.1,21.1l0,0c0,11.6-9.4,21.1-21.1,21.1H937
		c-11.6,0-21.1-9.4-21.1-21.1l0,0C915.9,446.7,925.4,437.2,937,437.2z"/>
	<path id="XMLID_240_" class="st33" d="M1022.6,548C1022.6,548,1022.5,548,1022.6,548c0,6.5,5.2,11.8,11.7,11.8
		c6.5,0,11.7-5.3,11.7-11.7c0,0,0,0,0,0H1022.6z"/>
	<circle id="XMLID_238_" class="st33" cx="1047.1" cy="551.5" r="2.4"/>
	<path id="XMLID_206_" class="st33" d="M1047.1,561.5h-25.6c-0.5,0-0.8-0.4-0.8-0.8v0c0-0.5,0.4-0.8,0.8-0.8h25.6
		c0.5,0,0.8,0.4,0.8,0.8v0C1047.9,561.1,1047.6,561.5,1047.1,561.5z"/>
	<path id="XMLID_237_" class="st33" d="M1035.9,546.8c0,0-5.5-0.9-5.9-4.1c-0.4-3.2,6.6-0.8,6.7-4.6c0.1-3.8-3.7-2.2-4.5-4.9
		c-0.8-2.7,4.9-3.6,4.9-3.6s-3.8,1.7-3.6,3.2c0.2,1.5,5.4,0.7,5.4,5s-5.3,3.3-5.4,5.2C1033.6,545,1035.9,546.8,1035.9,546.8z"/>
	<g id="XMLID_526_">
		<g id="XMLID_528_">
			<path id="XMLID_236_" class="st36" d="M992.8,447.6C992.8,447.6,992.8,447.6,992.8,447.6c0,11.1,9,20.1,20,20.1
				c11.1,0,20-9,20-20c0,0,0-0.1,0-0.1H992.8z"/>
			<circle id="XMLID_235_" class="st36" cx="1034.7" cy="453.6" r="4"/>
			<path id="XMLID_204_" class="st36" d="M1034.7,470.6h-43.8c-0.8,0-1.4-0.6-1.4-1.4v0c0-0.8,0.6-1.4,1.4-1.4h43.8
				c0.8,0,1.4,0.6,1.4,1.4v0C1036.2,469.9,1035.5,470.6,1034.7,470.6z"/>
		</g>
		<path id="XMLID_234_" class="st36" d="M1014.9,443.8c0,0-6.4-1-6.8-4.8c-0.4-3.8,7.6-0.9,7.8-5.3c0.2-4.4-4.3-2.6-5.2-5.7
			c-0.9-3.1,5.7-4.2,5.7-4.2s-4.4,2-4.2,3.7c0.2,1.7,6.3,0.9,6.3,5.8c0,5-6.2,3.9-6.3,6.1C1012.2,441.7,1014.9,443.8,1014.9,443.8z"
			/>
	</g>
	<g id="XMLID_523_">
		<circle id="XMLID_232_" class="st36" cx="936.8" cy="458.3" r="13.8"/>
		<circle id="XMLID_231_" class="st34" cx="936.8" cy="458.3" r="7.6"/>
	</g>
	<g id="XMLID_519_">
		<circle id="XMLID_230_" class="st36" cx="1087.5" cy="458.3" r="13.8"/>
		<circle id="XMLID_227_" class="st34" cx="1087.5" cy="458.3" r="7.6"/>
	</g>
	<rect id="XMLID_226_" x="948.1" y="573.5" class="st33" width="24.4" height="17.1"/>
	<rect id="XMLID_225_" x="949.9" y="574.8" class="st34" width="20.7" height="14.5"/>
	<g id="XMLID_510_">
		<path id="XMLID_223_" class="st33" d="M1112.8,555.3L1112.8,555.3c-5.4,0-9.7,4.4-9.7,9.7v23.6h19.4V565
			C1122.5,559.6,1118.1,555.3,1112.8,555.3z"/>
		<rect id="XMLID_222_" x="1103" y="583.6" class="st33" width="2.5" height="10.2"/>
		<rect id="XMLID_220_" x="1120" y="583.6" class="st33" width="2.5" height="10.2"/>
	</g>
	<rect id="XMLID_218_" x="1105.4" y="564" class="st34" width="14.8" height="22"/>
	<rect id="XMLID_216_" x="1107.6" y="568.1" class="st36" width="10.3" height="0.9"/>
	<rect id="XMLID_215_" x="1107.6" y="571.1" class="st36" width="10.3" height="0.9"/>
	<rect id="XMLID_213_" x="1107.6" y="574" class="st36" width="10.3" height="0.9"/>
	<rect id="XMLID_209_" x="1107.6" y="577" class="st36" width="10.3" height="0.9"/>
	<rect id="XMLID_208_" x="1107.6" y="580" class="st36" width="10.3" height="0.9"/>
	<rect id="XMLID_207_" x="927.6" y="479.3" class="st40" width="168.8" height="6.1"/>
</g>
<g id="XMLID_475_">
	<g id="XMLID_669_">
		<rect id="XMLID_296_" x="1252.4" y="554.9" class="st2" width="15.8" height="39.3"/>
		<polygon id="XMLID_295_" class="st3" points="1213,574.7 1270.6,367.4 1310.8,557.2 		"/>
		<polygon id="XMLID_293_" class="st4" points="1206.9,563.7 1259.1,370.7 1297.9,547.5 		"/>
	</g>
	<g id="XMLID_476_">
		<rect id="XMLID_473_" x="1280.4" y="448.1" class="st23" width="192.6" height="135.3"/>
		<rect id="XMLID_472_" x="1272.8" y="549.2" class="st41" width="208" height="34.5"/>
		<rect id="XMLID_471_" x="1275.2" y="479" class="st25" width="10.5" height="70.2"/>
		<rect id="XMLID_470_" x="1299.6" y="479" class="st25" width="10.5" height="70.2"/>
		<rect id="XMLID_469_" x="1350.2" y="479" class="st25" width="10.5" height="70.2"/>
		
			<rect id="XMLID_468_" x="1467.6" y="479" transform="matrix(-1 -1.224647e-16 1.224647e-16 -1 2945.7859 1028.196)" class="st25" width="10.5" height="70.2"/>
		
			<rect id="XMLID_467_" x="1443.1" y="477.3" transform="matrix(-1 -1.224647e-16 1.224647e-16 -1 2896.7708 1024.8138)" class="st25" width="10.5" height="70.2"/>
		
			<rect id="XMLID_466_" x="1392.6" y="479" transform="matrix(-1 -1.224647e-16 1.224647e-16 -1 2795.7766 1028.196)" class="st25" width="10.5" height="70.2"/>
		<rect id="XMLID_465_" x="1269.8" y="547.5" class="st42" width="90.9" height="4"/>
		<rect id="XMLID_464_" x="1392.6" y="547.5" class="st42" width="90.1" height="4"/>
		<rect id="XMLID_463_" x="1405.7" y="480.8" class="st43" width="35.4" height="64.7"/>
		<rect id="XMLID_462_" x="1312.2" y="480.8" class="st43" width="35.4" height="64.7"/>
		<rect id="XMLID_461_" x="1272.7" y="435" class="st41" width="208" height="44"/>
		<rect id="XMLID_460_" x="1360.7" y="479" class="st44" width="32" height="104.4"/>
		<rect id="XMLID_459_" x="1363.5" y="480.8" class="st43" width="26.6" height="64.7"/>
		<rect id="XMLID_458_" x="1269.4" y="475.5" class="st42" width="214.5" height="3.5"/>
		<rect id="XMLID_457_" x="1269.4" y="463.3" class="st42" width="214.5" height="3.5"/>
		<rect id="XMLID_456_" x="1269.4" y="430.9" class="st42" width="214.5" height="5.4"/>
		<g id="XMLID_644_">
			<rect id="XMLID_455_" x="1275.2" y="553.8" class="st23" width="11.2" height="27.5"/>
			<rect id="XMLID_454_" x="1289.5" y="553.8" class="st23" width="11.2" height="27.5"/>
			<rect id="XMLID_453_" x="1303.7" y="553.8" class="st23" width="11.2" height="27.5"/>
			<rect id="XMLID_452_" x="1318" y="553.8" class="st23" width="11.2" height="27.5"/>
			<rect id="XMLID_451_" x="1332.3" y="553.8" class="st23" width="11.2" height="27.5"/>
			<rect id="XMLID_450_" x="1346.6" y="553.8" class="st23" width="11.2" height="27.5"/>
		</g>
		<g id="XMLID_637_">
			<rect id="XMLID_449_" x="1395.5" y="553.8" class="st23" width="11.2" height="27.5"/>
			<rect id="XMLID_448_" x="1409.8" y="553.8" class="st23" width="11.2" height="27.5"/>
			<rect id="XMLID_447_" x="1424" y="553.8" class="st23" width="11.2" height="27.5"/>
			<rect id="XMLID_446_" x="1438.3" y="553.8" class="st23" width="11.2" height="27.5"/>
			<rect id="XMLID_445_" x="1452.6" y="553.8" class="st23" width="11.2" height="27.5"/>
			<rect id="XMLID_444_" x="1466.9" y="553.8" class="st23" width="11.2" height="27.5"/>
		</g>
		<rect id="XMLID_443_" x="1363.5" y="548.6" class="st43" width="26.6" height="30.1"/>
		<rect id="XMLID_442_" x="1269.5" y="583.4" class="st42" width="213.2" height="8.8"/>
		<rect id="XMLID_441_" x="1307.7" y="439.3" class="st23" width="138" height="20.3"/>
		<rect id="XMLID_440_" x="1312.2" y="527" class="st45" width="35.3" height="3.3"/>
		<rect id="XMLID_439_" x="1405.7" y="527" class="st45" width="35.3" height="3.3"/>
		<rect id="XMLID_438_" x="1369.2" y="520.6" class="st45" width="15.2" height="9.8"/>
		<rect id="XMLID_437_" x="1235.3" y="592.2" class="st7" width="309" height="7.8"/>
		<g id="XMLID_620_">
			<circle id="XMLID_436_" class="st21" cx="1491.1" cy="553.5" r="17.8"/>
			<polygon id="XMLID_435_" class="st46" points="1511.2,553.5 1471,553.5 1475.5,592.2 1506.7,592.2 			"/>
			<circle id="XMLID_434_" class="st22" cx="1499.4" cy="537.4" r="2.2"/>
			<circle id="XMLID_433_" class="st22" cx="1489.2" cy="544.1" r="3.4"/>
			<circle id="XMLID_432_" class="st22" cx="1498.9" cy="548.5" r="1"/>
			<circle id="XMLID_431_" class="st22" cx="1487.7" cy="536" r="1.9"/>
			<circle id="XMLID_430_" class="st22" cx="1481.2" cy="539.1" r="1.2"/>
			<circle id="XMLID_429_" class="st22" cx="1494.2" cy="539.8" r="1.6"/>
			<circle id="XMLID_428_" class="st22" cx="1487.7" cy="551.4" r="0.5"/>
		</g>
		<g id="XMLID_610_">
			<circle id="XMLID_427_" class="st21" cx="1516.1" cy="565.5" r="12.3"/>
			<polygon id="XMLID_426_" class="st46" points="1530,565.5 1502.2,565.5 1505.3,592.2 1526.8,592.2 			"/>
			<circle id="XMLID_425_" class="st22" cx="1517.1" cy="553" r="1.5"/>
			<circle id="XMLID_424_" class="st22" cx="1504.6" cy="561.5" r="2.3"/>
			<circle id="XMLID_423_" class="st22" cx="1527.7" cy="561.9" r="1.1"/>
			<circle id="XMLID_422_" class="st22" cx="1513.5" cy="556.2" r="1.3"/>
			<circle id="XMLID_421_" class="st22" cx="1510.5" cy="561" r="0.6"/>
			<circle id="XMLID_420_" class="st22" cx="1523.2" cy="558.3" r="1.1"/>
			<circle id="XMLID_419_" class="st22" cx="1513.8" cy="564.1" r="0.4"/>
		</g>
		<g id="XMLID_604_">
			<rect id="XMLID_418_" x="1253.6" y="485.6" class="st43" width="39.2" height="1.7"/>
			<circle id="XMLID_417_" class="st43" cx="1253.6" cy="486.4" r="2.6"/>
			<rect id="XMLID_416_" x="1263.7" y="487" class="st43" width="0.8" height="5.9"/>
			<rect id="XMLID_415_" x="1278.9" y="486.5" class="st43" width="0.8" height="5.9"/>
			<path id="XMLID_414_" class="st43" d="M1280.6,507.8h-18.5c-1.2,0-2.1-0.9-2.1-2.1v-11.6c0-1.2,0.9-2.1,2.1-2.1h18.5
				c1.2,0,2.1,0.9,2.1,2.1v11.6C1282.7,506.8,1281.8,507.8,1280.6,507.8z"/>
		</g>
		<ellipse id="XMLID_413_" class="st25" cx="1330" cy="513.4" rx="8.1" ry="13"/>
		<ellipse id="XMLID_412_" class="st25" cx="1376.9" cy="513.4" rx="8.1" ry="13"/>
		<ellipse id="XMLID_411_" class="st25" cx="1423.4" cy="513.4" rx="8.1" ry="13"/>
		<g id="XMLID_477_">
			<g id="XMLID_564_">
				
					<rect id="XMLID_410_" x="1268.1" y="553" transform="matrix(-1 -1.224647e-16 1.224647e-16 -1 2536.5669 1123.1825)" class="st20" width="0.3" height="17.2"/>
				
					<rect id="XMLID_409_" x="1261.5" y="561.6" transform="matrix(0.1739 -0.9848 0.9848 0.1739 496.0685 1714.8267)" class="st20" width="17.2" height="0.3"/>
				
					<rect id="XMLID_408_" x="1263.3" y="562.1" transform="matrix(0.3413 -0.94 0.94 0.3413 309.2962 1565.8059)" class="st20" width="17.2" height="0.3"/>
				
					<rect id="XMLID_407_" x="1264.9" y="562.8" transform="matrix(0.5003 -0.8659 0.8659 0.5003 148.9328 1384.0281)" class="st20" width="17.2" height="0.3"/>
				
					<rect id="XMLID_406_" x="1274.8" y="555.5" transform="matrix(-0.7665 -0.6422 0.6422 -0.7665 1890.1127 1815.1675)" class="st20" width="0.3" height="17.2"/>
				
					<rect id="XMLID_405_" x="1276.1" y="556.7" transform="matrix(-0.6433 -0.7656 0.7656 -0.6433 1664.4916 1906.1145)" class="st20" width="0.3" height="17.2"/>
				
					<rect id="XMLID_404_" x="1277.1" y="558.2" transform="matrix(-0.4999 -0.8661 0.8661 -0.4999 1424.9086 1956.4164)" class="st20" width="0.3" height="17.2"/>
				
					<rect id="XMLID_403_" x="1277.9" y="559.9" transform="matrix(-0.3421 -0.9397 0.9397 -0.3421 1181.1669 1963.8893)" class="st20" width="0.3" height="17.2"/>
				
					<rect id="XMLID_402_" x="1278.4" y="561.6" transform="matrix(-0.173 -0.9849 0.9849 -0.173 938.1299 1928.1299)" class="st20" width="0.3" height="17.2"/>
				
					<rect id="XMLID_401_" x="1278.5" y="563.4" transform="matrix(6.123234e-17 -1 1 6.123234e-17 706.6921 1850.7319)" class="st20" width="0.3" height="17.2"/>
				
					<rect id="XMLID_400_" x="1278.4" y="565.3" transform="matrix(0.173 -0.9849 0.9849 0.173 492.187 1733.8346)" class="st20" width="0.3" height="17.2"/>
				
					<rect id="XMLID_399_" x="1277.9" y="567" transform="matrix(0.3421 -0.9397 0.9397 0.3421 299.9885 1579.6423)" class="st20" width="0.3" height="17.2"/>
				
					<rect id="XMLID_398_" x="1277.1" y="568.7" transform="matrix(0.5003 -0.8659 0.8659 0.5003 138.5052 1394.4523)" class="st20" width="0.3" height="17.2"/>
				
					<rect id="XMLID_397_" x="1276.1" y="570.1" transform="matrix(0.6429 -0.766 0.766 0.6429 12.5138 1184.2859)" class="st20" width="0.3" height="17.2"/>
				
					<rect id="XMLID_396_" x="1274.8" y="571.4" transform="matrix(0.7661 -0.6427 0.6427 0.7661 -74.5681 955.1129)" class="st20" width="0.3" height="17.2"/>
				
					<rect id="XMLID_395_" x="1273.3" y="572.5" transform="matrix(0.8659 -0.5003 0.5003 0.8659 -119.868 715.0256)" class="st20" width="0.3" height="17.2"/>
				
					<rect id="XMLID_394_" x="1271.7" y="573.2" transform="matrix(0.9397 -0.3421 0.3421 0.9397 -122.3021 470.211)" class="st20" width="0.3" height="17.2"/>
				
					<rect id="XMLID_393_" x="1269.9" y="573.7" transform="matrix(0.9848 -0.1739 0.1739 0.9848 -81.8978 229.7015)" class="st20" width="0.3" height="17.2"/>
				<rect id="XMLID_392_" x="1268.1" y="573.9" class="st20" width="0.3" height="17.2"/>
				
					<rect id="XMLID_391_" x="1257.9" y="582.1" transform="matrix(0.1739 -0.9848 0.9848 0.1739 472.8488 1728.229)" class="st20" width="17.2" height="0.3"/>
				
					<rect id="XMLID_390_" x="1264.5" y="573.2" transform="matrix(0.9397 0.3421 -0.3421 0.9397 275.3533 -397.559)" class="st20" width="0.3" height="17.2"/>
				
					<rect id="XMLID_389_" x="1254.5" y="580.9" transform="matrix(0.5003 -0.8659 0.8659 0.5003 128.0811 1384.025)" class="st20" width="17.2" height="0.3"/>
				
					<rect id="XMLID_388_" x="1261.4" y="571.4" transform="matrix(0.766 0.6429 -0.6429 0.766 668.0977 -675.2892)" class="st20" width="0.3" height="17.2"/>
				
					<rect id="XMLID_387_" x="1260.1" y="570.1" transform="matrix(0.6423 0.7664 -0.7664 0.6423 894.3123 -758.9314)" class="st20" width="0.3" height="17.2"/>
				
					<rect id="XMLID_386_" x="1250.7" y="577.1" transform="matrix(0.8659 -0.5003 0.5003 0.8659 -119.8692 707.3869)" class="st20" width="17.2" height="0.3"/>
				
					<rect id="XMLID_385_" x="1258.3" y="567" transform="matrix(0.3421 0.9397 -0.9397 0.3421 1368.8082 -803.8732)" class="st20" width="0.3" height="17.2"/>
				
					<rect id="XMLID_384_" x="1257.8" y="565.3" transform="matrix(0.1739 0.9848 -0.9848 0.1739 1604.3718 -764.7933)" class="st20" width="0.3" height="17.2"/>
				
					<rect id="XMLID_383_" x="1257.7" y="563.4" transform="matrix(-1.836970e-16 1 -1 -1.836970e-16 1829.8746 -685.8348)" class="st20" width="0.3" height="17.2"/>
				
					<rect id="XMLID_382_" x="1257.8" y="561.6" transform="matrix(-0.1739 0.9848 -0.9848 -0.1739 2038.2688 -569.5)" class="st20" width="0.3" height="17.2"/>
				
					<rect id="XMLID_381_" x="1258.3" y="559.9" transform="matrix(-0.3421 0.9397 -0.9397 -0.3421 2223.1699 -419.6263)" class="st20" width="0.3" height="17.2"/>
				
					<rect id="XMLID_380_" x="1259.1" y="558.2" transform="matrix(0.4999 -0.8661 0.8661 0.4999 138.8715 1374.1046)" class="st20" width="0.3" height="17.2"/>
				
					<rect id="XMLID_379_" x="1260.1" y="556.7" transform="matrix(0.6428 -0.7661 0.7661 0.6428 17.1436 1167.397)" class="st20" width="0.3" height="17.2"/>
				
					<rect id="XMLID_378_" x="1261.4" y="555.5" transform="matrix(0.7664 -0.6423 0.6423 0.7664 -67.6225 942.0995)" class="st20" width="0.3" height="17.2"/>
				
					<rect id="XMLID_377_" x="1262.9" y="554.4" transform="matrix(0.8659 -0.5003 0.5003 0.8659 -112.2305 707.3857)" class="st20" width="0.3" height="17.2"/>
				
					<rect id="XMLID_376_" x="1264.5" y="553.6" transform="matrix(0.94 -0.3413 0.3413 0.94 -115.9461 465.4206)" class="st20" width="0.3" height="17.2"/>
				
					<rect id="XMLID_375_" x="1266.3" y="553.2" transform="matrix(0.9848 -0.1739 0.1739 0.9848 -78.3816 228.7589)" class="st20" width="0.3" height="17.2"/>
			</g>
			<path id="XMLID_561_" class="st47" d="M1248.1,572c0,11.1,9,20.1,20.1,20.1c11.1,0,20.1-9,20.1-20.1c0-11.1-9-20.1-20.1-20.1
				C1257.2,551.9,1248.1,560.9,1248.1,572z M1250.2,572c0-9,8-18,18.1-18.1c10.7-0.1,18.1,9.1,18.1,18.1c0,9-6.9,18-18.1,18.1
				C1257.7,590.3,1250.2,581,1250.2,572z"/>
			<path id="XMLID_558_" class="st20" d="M1268.3,553.3c-10.4,0-18.8,8.4-18.8,18.8c0,10.4,8.4,18.8,18.8,18.8
				c10.4,0,18.8-8.4,18.8-18.8C1287,561.7,1278.6,553.3,1268.3,553.3z M1268.3,589.7c-9.8,0-17.7-7.9-17.7-17.7
				c0-9.8,7.9-17.7,17.7-17.7c9.8,0,17.7,7.9,17.7,17.7C1286,581.8,1278.1,589.7,1268.3,589.7z"/>
			<g id="XMLID_521_">
				
					<rect id="XMLID_370_" x="1327.2" y="553" transform="matrix(-1 -1.224647e-16 1.224647e-16 -1 2654.7634 1123.1825)" class="st20" width="0.3" height="17.2"/>
				
					<rect id="XMLID_369_" x="1320.6" y="561.6" transform="matrix(0.1739 -0.9848 0.9848 0.1739 544.8913 1773.0248)" class="st20" width="17.2" height="0.3"/>
				
					<rect id="XMLID_368_" x="1322.4" y="562.1" transform="matrix(0.3413 -0.94 0.94 0.3413 348.2236 1621.3552)" class="st20" width="17.2" height="0.3"/>
				
					<rect id="XMLID_367_" x="1324" y="562.8" transform="matrix(0.4999 -0.8661 0.8661 0.4999 178.8585 1435.7185)" class="st20" width="17.2" height="0.3"/>
				
					<rect id="XMLID_366_" x="1333.9" y="555.5" transform="matrix(-0.7662 -0.6426 0.6426 -0.7662 1993.7677 1853.5009)" class="st20" width="0.3" height="17.2"/>
				
					<rect id="XMLID_365_" x="1335.2" y="556.7" transform="matrix(-0.6433 -0.7656 0.7656 -0.6433 1761.608 1951.3607)" class="st20" width="0.3" height="17.2"/>
				
					<rect id="XMLID_364_" x="1336.2" y="558.2" transform="matrix(-0.5001 -0.866 0.866 -0.5001 1513.9226 2007.5551)" class="st20" width="0.3" height="17.2"/>
				
					<rect id="XMLID_363_" x="1337" y="559.9" transform="matrix(-0.3421 -0.9397 0.9397 -0.3421 1260.4829 2019.4218)" class="st20" width="0.3" height="17.2"/>
				
					<rect id="XMLID_362_" x="1337.5" y="561.6" transform="matrix(-0.173 -0.9849 0.9849 -0.173 1007.4521 1986.337)" class="st20" width="0.3" height="17.2"/>
				
					<rect id="XMLID_361_" x="1337.6" y="563.4" transform="matrix(6.123234e-17 -1 1 6.123234e-17 765.7904 1909.8302)" class="st20" width="0.3" height="17.2"/>
				
					<rect id="XMLID_360_" x="1337.5" y="565.3" transform="matrix(0.173 -0.9849 0.9849 0.173 541.0614 1792.0417)" class="st20" width="0.3" height="17.2"/>
				
					<rect id="XMLID_359_" x="1337" y="567" transform="matrix(0.3421 -0.9397 0.9397 0.3421 338.869 1635.1747)" class="st20" width="0.3" height="17.2"/>
				
					<rect id="XMLID_358_" x="1336.2" y="568.7" transform="matrix(0.5005 -0.8657 0.8657 0.5005 167.8131 1445.3204)" class="st20" width="0.3" height="17.2"/>
				
					<rect id="XMLID_357_" x="1335.2" y="570.1" transform="matrix(0.6429 -0.766 0.766 0.6429 33.62 1229.5541)" class="st20" width="0.3" height="17.2"/>
				
					<rect id="XMLID_356_" x="1333.9" y="571.4" transform="matrix(0.7657 -0.6432 0.6432 0.7657 -60.5064 993.9022)" class="st20" width="0.3" height="17.2"/>
				
					<rect id="XMLID_355_" x="1332.4" y="572.5" transform="matrix(0.8661 -0.4999 0.4999 0.8661 -112.0147 743.9407)" class="st20" width="0.3" height="17.2"/>
				
					<rect id="XMLID_354_" x="1330.8" y="573.2" transform="matrix(0.9397 -0.3421 0.3421 0.9397 -118.7362 490.4288)" class="st20" width="0.3" height="17.2"/>
				
					<rect id="XMLID_353_" x="1329" y="573.7" transform="matrix(0.9848 -0.1739 0.1739 0.9848 -80.9976 239.977)" class="st20" width="0.3" height="17.2"/>
				<rect id="XMLID_352_" x="1327.2" y="573.9" class="st20" width="0.3" height="17.2"/>
				
					<rect id="XMLID_351_" x="1325.4" y="573.7" transform="matrix(0.9848 0.1739 -0.1739 0.9848 121.4338 -221.6089)" class="st20" width="0.3" height="17.2"/>
				
					<rect id="XMLID_350_" x="1315.2" y="581.7" transform="matrix(0.3423 -0.9396 0.9396 0.3423 324.0039 1626.51)" class="st20" width="17.2" height="0.3"/>
				
					<rect id="XMLID_349_" x="1313.6" y="580.9" transform="matrix(0.5003 -0.8659 0.8659 0.5003 157.6143 1435.1964)" class="st20" width="17.2" height="0.3"/>
				
					<rect id="XMLID_348_" x="1320.5" y="571.4" transform="matrix(0.766 0.6429 -0.6429 0.766 681.9278 -713.2812)" class="st20" width="0.3" height="17.2"/>
				
					<rect id="XMLID_347_" x="1319.2" y="570.1" transform="matrix(0.6423 0.7664 -0.7664 0.6423 915.4497 -804.2257)" class="st20" width="0.3" height="17.2"/>
				
					<rect id="XMLID_346_" x="1309.8" y="577.1" transform="matrix(0.8661 -0.4998 0.4998 0.8661 -112.0252 736.2087)" class="st20" width="17.2" height="0.3"/>
				
					<rect id="XMLID_345_" x="1317.4" y="567" transform="matrix(0.3421 0.9397 -0.9397 0.3421 1407.6886 -859.4054)" class="st20" width="0.3" height="17.2"/>
				
					<rect id="XMLID_344_" x="1308.5" y="573.7" transform="matrix(0.9849 -0.173 0.173 0.9849 -79.4126 236.5105)" class="st20" width="17.2" height="0.3"/>
				
					<rect id="XMLID_343_" x="1316.8" y="563.4" transform="matrix(-1.836970e-16 1 -1 -1.836970e-16 1888.9729 -744.9331)" class="st20" width="0.3" height="17.2"/>
				
					<rect id="XMLID_342_" x="1316.9" y="561.6" transform="matrix(0.173 -0.9849 0.9849 0.173 527.6417 1768.8158)" class="st20" width="0.3" height="17.2"/>
				
					<rect id="XMLID_341_" x="1317.4" y="559.9" transform="matrix(-0.3421 0.9397 -0.9397 -0.3421 2302.4856 -475.1584)" class="st20" width="0.3" height="17.2"/>
				
					<rect id="XMLID_340_" x="1318.2" y="558.2" transform="matrix(0.4994 -0.8664 0.8664 0.4994 168.8737 1425.8864)" class="st20" width="0.3" height="17.2"/>
				
					<rect id="XMLID_339_" x="1319.2" y="556.7" transform="matrix(-0.6428 0.7661 -0.7661 -0.6428 2600.5308 -82.0363)" class="st20" width="0.3" height="17.2"/>
				
					<rect id="XMLID_338_" x="1320.5" y="555.5" transform="matrix(0.7664 -0.6423 0.6423 0.7664 -53.8186 980.0603)" class="st20" width="0.3" height="17.2"/>
				
					<rect id="XMLID_337_" x="1322" y="554.4" transform="matrix(0.8659 -0.5003 0.5003 0.8659 -104.3037 736.9506)" class="st20" width="0.3" height="17.2"/>
				
					<rect id="XMLID_336_" x="1323.6" y="553.6" transform="matrix(0.9399 -0.3415 0.3415 0.9399 -112.413 485.8856)" class="st20" width="0.3" height="17.2"/>
				
					<rect id="XMLID_335_" x="1325.4" y="553.2" transform="matrix(0.9848 -0.1739 0.1739 0.9848 -77.4814 239.0344)" class="st20" width="0.3" height="17.2"/>
			</g>
			<path id="XMLID_518_" class="st47" d="M1307.2,572c0,11.1,9,20.1,20.1,20.1s20.1-9,20.1-20.1c0-11.1-9-20.1-20.1-20.1
				S1307.2,560.9,1307.2,572z M1309.3,572c0-9,8-18,18.1-18.1c10.7-0.1,18.1,9.1,18.1,18.1c0,9-6.9,18-18.1,18.1
				C1316.8,590.3,1309.3,581,1309.3,572z"/>
			<path id="XMLID_515_" class="st20" d="M1327.4,553.3c-10.4,0-18.8,8.4-18.8,18.8c0,10.4,8.4,18.8,18.8,18.8
				c10.4,0,18.8-8.4,18.8-18.8C1346.1,561.7,1337.7,553.3,1327.4,553.3z M1327.4,589.7c-9.8,0-17.7-7.9-17.7-17.7
				c0-9.8,7.9-17.7,17.7-17.7c9.8,0,17.7,7.9,17.7,17.7C1345.1,581.8,1337.2,589.7,1327.4,589.7z"/>
			
				<rect id="XMLID_330_" x="1287.6" y="565.6" transform="matrix(2.400997e-02 -0.9997 0.9997 2.400997e-02 689.822 1841.1814)" class="st47" width="0.6" height="3.4"/>
			<polygon id="XMLID_329_" class="st20" points="1288.1,567.7 1287.6,568 1291.8,574.7 1292.3,574.4 			"/>
			<rect id="XMLID_328_" x="1284.3" y="543.6" class="st48" width="33.3" height="1.1"/>
			<polygon id="XMLID_327_" class="st48" points="1318.6,548.2 1293.7,577.3 1292.7,576.8 1318,546.9 			"/>
			
				<rect id="XMLID_326_" x="1286.9" y="533.7" transform="matrix(0.9604 -0.2788 0.2788 0.9604 -103.7513 381.0143)" class="st48" width="1.8" height="43.1"/>
			<path id="XMLID_325_" class="st47" d="M1289,535.1c-10.6-1-10.5,1.6-13.4,0c-1.8-1.2-2.2-3.4,0-3.2c2.2,0.2,8.6,0.8,11.1,1.2
				C1289.1,533.6,1289.9,535.2,1289,535.1z"/>
			<ellipse id="XMLID_324_" class="st19" cx="1327.4" cy="572.2" rx="2.4" ry="2.4"/>
			<polygon id="XMLID_323_" class="st48" points="1319.4,552.1 1315.3,537.9 1316.5,537.4 1320.8,551.5 			"/>
			<polygon id="XMLID_322_" class="st48" points="1326.4,572.5 1320.4,551.3 1321.6,550.8 1327.8,572 			"/>
			<polygon id="XMLID_321_" class="st48" points="1268.6,571.8 1283.5,542.1 1284.3,542.5 1269.4,572.3 			"/>
			<polygon id="XMLID_320_" class="st19" points="1270.1,572.4 1293.4,577.4 1293.2,578.2 1269.9,573.2 			"/>
			<path id="XMLID_494_" class="st47" d="M1294.5,571.1c-3.2-0.8-6.4,1.2-7.2,4.4c-0.8,3.2,1.2,6.4,4.4,7.2c3.2,0.8,6.4-1.2,7.2-4.4
				C1299.7,575.1,1297.7,571.9,1294.5,571.1z M1295.8,573.9c0.5-0.3,1.2-0.2,1.6,0.4c0.3,0.5,0.2,1.2-0.4,1.6
				c-0.5,0.3-1.2,0.2-1.6-0.4C1295.1,575,1295.3,574.3,1295.8,573.9z M1288.2,575.7c0.1-0.6,0.8-1,1.4-0.8c0.6,0.1,1,0.8,0.8,1.4
				c-0.1,0.6-0.8,1-1.4,0.8C1288.5,577,1288.1,576.3,1288.2,575.7z M1290.4,579.9c-0.5,0.3-1.2,0.2-1.6-0.4
				c-0.3-0.5-0.2-1.2,0.4-1.6c0.5-0.3,1.2-0.2,1.6,0.4C1291.1,578.9,1290.9,579.6,1290.4,579.9z M1291.7,574.6
				c-0.5,0.3-1.2,0.2-1.6-0.4c-0.3-0.5-0.2-1.2,0.4-1.6c0.5-0.3,1.2-0.2,1.6,0.4C1292.4,573.6,1292.2,574.3,1291.7,574.6z
				 M1291.9,581.8c-0.6-0.1-1-0.8-0.8-1.4c0.1-0.6,0.8-1,1.4-0.8c0.6,0.1,1,0.8,0.8,1.4C1293.1,581.6,1292.5,581.9,1291.9,581.8z
				 M1293.7,574.3c-0.6-0.1-1-0.8-0.8-1.4c0.1-0.6,0.8-1,1.4-0.8c0.6,0.1,1,0.8,0.8,1.4C1295,574,1294.3,574.4,1293.7,574.3z
				 M1295.7,581.2c-0.5,0.3-1.2,0.2-1.6-0.4c-0.3-0.5-0.2-1.2,0.4-1.6c0.5-0.3,1.2-0.2,1.6,0.4
				C1296.4,580.2,1296.2,580.9,1295.7,581.2z M1296.6,578.9c-0.6-0.1-1-0.8-0.8-1.4c0.1-0.6,0.8-1,1.4-0.8c0.6,0.1,1,0.8,0.8,1.4
				C1297.8,578.7,1297.2,579.1,1296.6,578.9z"/>
			<circle id="XMLID_310_" class="st49" cx="1268.3" cy="572" r="1.3"/>
			
				<rect id="XMLID_309_" x="1315.3" y="536.4" transform="matrix(-1 -1.224647e-16 1.224647e-16 -1 2634.9629 1074.3303)" class="st26" width="4.4" height="1.4"/>
			
				<rect id="XMLID_308_" x="1319.8" y="550.1" transform="matrix(-0.9523 0.3052 -0.3052 -0.9523 2747.4817 672.5612)" class="st47" width="2.7" height="1.8"/>
			<circle id="XMLID_307_" class="st49" cx="1327.4" cy="572.2" r="1.3"/>
			<circle id="XMLID_306_" class="st47" cx="1269.9" cy="578.4" r="1.3"/>
			<polygon id="XMLID_305_" class="st47" points="1268.7,573 1270.4,578.2 1269.5,578.2 1267.6,573 			"/>
			<polygon id="XMLID_304_" class="st49" points="1288.3,570.8 1269.5,570 1269.6,569.7 1288.3,570.5 			"/>
			<polygon id="XMLID_303_" class="st49" points="1290.8,582.6 1270.2,579.4 1270.2,579.1 1290.8,582.3 			"/>
			<g id="XMLID_481_">
				<ellipse id="XMLID_302_" class="st47" cx="1268.3" cy="572" rx="2.4" ry="2.4"/>
				<path id="XMLID_482_" class="st43" d="M1268.3,574.6c-1.4,0-2.5-1.1-2.5-2.6c0-1.4,1.1-2.5,2.5-2.5c1.4,0,2.5,1.1,2.5,2.5
					C1270.8,573.4,1269.7,574.6,1268.3,574.6z M1268.3,569.7c-1.3,0-2.3,1-2.3,2.3c0,1.3,1,2.3,2.3,2.3c1.3,0,2.3-1,2.3-2.3
					C1270.6,570.7,1269.6,569.7,1268.3,569.7z"/>
			</g>
			<path id="XMLID_299_" class="st26" d="M1319.2,536.5c0,0,8.8-0.5,9.1,6.4c0.3,5.9-4.7,5.8-6.3,5.6c-0.3,0-0.5-0.3-0.5-0.5v0
				c0-0.3,0.2-0.5,0.5-0.5c1.4,0,5.1-0.4,4.9-4.2c-0.4-5.4-7.8-5.4-7.8-5.4V536.5z"/>
			
				<rect id="XMLID_298_" x="1296.1" y="577.9" transform="matrix(0.855 -0.5187 0.5187 0.855 -113.7814 756.7808)" class="st20" width="0.6" height="7.9"/>
			
				<rect id="XMLID_297_" x="1296.4" y="584.7" transform="matrix(0.9999 -1.604276e-02 1.604276e-02 0.9999 -9.2189 20.9011)" class="st47" width="3.4" height="0.7"/>
		</g>
	</g>
</g>
</svg>
